<svg width="1010" height="533" viewBox="0 0 1010 533" fill="none" xmlns="http://www.w3.org/2000/svg">
  <path
    d="M842.152 37.4385C859.786 13.9967 884.972 -0.104711 922.815 1.27637L922.814 1.27734C939.411 1.83062 952.873 7.08751 961.918 15.4365C970.968 23.7908 975.566 35.2168 974.454 48.0225L974.455 48.0234C972.789 69.1329 959.416 81.4902 943.701 81.4902C939.096 81.4902 935.46 80.5479 932.673 78.8652C929.882 77.1797 927.975 74.7701 926.804 71.8955C924.472 66.1711 925.055 58.612 927.269 51.1426L927.271 51.1387C930.259 41.3564 928.603 33.5796 924.079 28.6562C919.549 23.7269 912.039 21.5435 903.083 23.1719L903.082 23.1709C879.949 27.527 867.537 43.979 859.798 64.5254C852.121 84.9056 849.097 109.15 844.752 129.448H921.78L921.634 130.064L916.133 153.168L916.041 153.553H839.588L786.863 403.448V403.45C779.155 439.516 767.169 471.637 749.918 494.754C732.656 517.885 710.103 532.018 681.306 532.018C665.232 532.018 649.309 525.923 637.4 516.507C625.498 507.095 617.545 494.313 617.545 480.909C617.545 466.03 628.418 454.353 643.752 455.062L644.485 455.105L644.491 455.106C652.769 455.808 658.057 459.646 661.709 464.992C665.339 470.306 667.351 477.108 669.137 483.735C670.933 490.404 672.497 496.875 675.209 501.696C676.558 504.096 678.178 506.058 680.225 507.421C682.266 508.78 684.764 509.563 687.907 509.563C709.036 509.563 722.117 493.33 731.04 471.778C739.956 450.242 744.621 423.628 749.028 403.242L801.711 153.553H753.848L753.98 152.945L757.831 135.343L757.906 134.996L758.258 134.953L806.864 128.945C814.558 93.3165 824.605 60.766 842.152 37.4385Z"
    fill="#FFCCFD" stroke="black" />
  <path
    d="M717.041 19.4297V138.15H695.156L695.138 137.669L692.938 78.8105C692.393 65.7356 687.639 57.3734 679.823 52.2529C671.97 47.108 660.951 45.1836 647.779 45.1836H589.97V192.159H641.229V125.048H664.232V284.476H641.229V217.363H589.97V402.296H681.285V427.5H506.455V402.296H550.463V44.6338H506.455V19.4297H717.041Z"
    fill="#FFCCFD" stroke="black" />
  <path
    d="M480.665 123.948L480.536 124.552L426.077 380.896C425.246 385.052 424.035 390.729 424.707 395.367C425.041 397.674 425.836 399.668 427.325 401.085C428.808 402.495 431.044 403.396 434.39 403.396C436.579 403.396 438.814 402.463 441.216 400.668C443.619 398.872 446.15 396.243 448.927 392.918C454.491 386.254 460.922 376.946 469.199 366.186L469.201 366.183L484.604 346.38L484.879 346.026L485.26 346.261L499.562 355.062L500.022 355.346L499.705 355.782L486.503 373.936H486.502C474.687 390.147 464.206 404.906 453.235 415.601C442.254 426.306 430.72 433.001 416.786 433.001C407.051 433.001 397.09 429.521 391.399 420.248C385.719 410.991 384.385 396.103 391.555 373.491L427.657 258.621H420.447L410.659 287.982C399.652 321.28 384.783 357.498 366.319 385.4C347.874 413.275 325.74 433.001 300.166 433.001C285.417 433.001 272.332 426.312 263.302 412.281C254.286 398.272 249.33 376.976 250.708 347.764V347.762C252.638 308.62 268.341 252.709 294.781 206.576C321.206 160.471 358.467 123.948 403.584 123.948C412.715 123.948 420.746 125.47 427.123 127.619C433.293 129.698 437.95 132.375 440.553 134.86L466.652 123.986L466.745 123.948H480.665ZM392.582 149.152C367.034 149.152 338.02 171.465 325.402 217.546V217.549L289.096 347.921L289.095 347.924C284.16 365.195 284.324 379.23 288.522 388.914C292.703 398.555 300.906 403.946 312.269 403.946C318.379 403.946 324.54 401.344 330.689 396.588C336.839 391.831 342.948 384.943 348.939 376.431C360.923 359.406 372.39 335.965 382.768 310.33C403.482 259.162 419.816 199.357 427.257 164.693C424.557 160.158 420.934 156.304 415.529 153.568C410.05 150.795 402.708 149.152 392.582 149.152Z"
    fill="#FFCCFD" stroke="black" />
  <path
    d="M152.016 19.4297L152.108 19.8105L246.081 402.296H276.995V427.5H157.175V402.296H205.991L175.438 281.175H90.9541L60.9463 402.296H96.5635V427.5H2.59766V402.296H35.1611L129.134 19.8105L129.228 19.4297H152.016ZM95.6006 257.07H170.239L132.92 104.005L95.6006 257.07Z"
    fill="#FFCCFD" stroke="black" />
</svg>