<svg width="1006" height="532" viewBox="0 0 1006 532" fill="none" xmlns="http://www.w3.org/2000/svg">
  <g style="mix-blend-mode:multiply">
    <path
      d="M930.259 0.5C953.05 0.5 971.306 4.90988 984.981 13.7773H984.982C998.657 22.2776 1005.57 33.0556 1005.57 46.1074C1005.57 53.5617 1003.14 59.92 998.287 65.1514C993.415 70.3981 987.043 73.0127 979.218 73.0127C972.147 73.0127 966.335 70.9624 961.827 66.8301L961.811 66.8154L961.796 66.7988C957.717 62.3486 954.566 57.1588 952.345 51.2344C950.142 45.3596 948.304 40.0321 946.834 35.2529L946.828 35.2314L943.022 20.5547C941.641 19.5722 939.485 18.7977 936.498 18.2705C933.42 17.7274 929.509 17.4531 924.758 17.4531C909.441 17.4532 896.904 21.2808 887.108 28.8994C877.27 36.5512 869.248 46.3922 863.044 58.4326C857.192 70.136 852.621 82.3889 849.329 95.1904L849.328 95.1943C846.094 107.412 843.391 118.572 841.215 128.672H951.293L951.09 129.321L945.589 146.924L945.479 147.275H837.148L783.323 402.673L783.322 402.675C778.181 426.547 770.834 448.224 761.279 467.701C751.711 487.206 738.822 502.675 722.611 514.097C706.372 525.538 685.911 531.241 661.263 531.241C639.931 531.241 622.233 527.012 608.199 518.52C593.79 510.022 586.5 499.06 586.5 485.634C586.5 478.179 588.927 471.821 593.785 466.59C598.657 461.343 605.03 458.729 612.854 458.729C620.05 458.73 625.743 460.648 629.867 464.543L630.261 464.927L630.276 464.942C634.345 469.381 637.673 474.375 640.262 479.921L640.271 479.938L640.277 479.957C642.482 485.836 644.138 491.353 645.244 496.51L649.049 511.188C650.43 512.172 652.542 512.945 655.438 513.472C658.424 514.014 662.197 514.289 666.764 514.289C681.713 514.289 693.691 510.461 702.748 502.854L702.756 502.848L703.637 502.124C712.675 494.585 719.668 484.992 724.613 473.336L724.617 473.328L724.621 473.319C730.107 461.617 734.312 449.365 737.238 436.563L737.24 436.556L737.242 436.547C740.541 424.084 743.29 412.724 745.488 402.465L799.271 147.275H713.445L713.584 146.664L716.335 134.562L716.417 134.2L716.788 134.174L803.329 128.148C808.472 104.418 816.161 83.0413 826.401 64.0234C836.705 44.522 850.327 29.0562 867.269 17.6387C884.238 6.203 905.244 0.500065 930.259 0.5Z"
      fill="#63E2FF" stroke="black" />
    <path
      d="M732.785 18.6533V137.374H716.443L716.387 136.938L708.686 78.0781V78.0752C707.046 64.9554 702.454 55.1828 694.964 48.6855C687.473 42.1872 677.014 38.9062 663.523 38.9062H585.91V194.134H662.474V124.271H679.977V283.699H662.474V213.837H585.91V407.021H675.025V426.724H500.195V407.021H546.403V38.3564H500.195V18.6533H732.785Z"
      fill="#63E2FF" stroke="black" />
    <path
      d="M475.855 123.172L475.728 123.775L421.268 380.12C420.546 384.098 420.363 389 420.728 394.835C420.903 397.472 421.861 399.387 423.555 400.657C425.267 401.941 427.802 402.62 431.23 402.62C438.399 402.62 444.498 399.583 449.548 393.45L449.554 393.444L449.559 393.438C455.045 387.219 461.82 378.614 469.884 367.618L469.888 367.614L484.74 347.811L485.031 347.422L485.429 347.702L494.78 354.304L495.194 354.596L494.896 355.006L481.693 373.159C469.952 389.304 458.941 403.252 448.66 415.001L448.654 415.007C438.302 426.469 426.07 432.225 411.978 432.225C405.639 432.225 399.498 430.36 393.56 426.648V426.647C387.908 423.253 384.186 417.245 382.334 408.728L382.333 408.723C380.473 399.795 381.97 387.778 386.746 372.714L422.849 257.845H415.638L405.851 287.208C400.345 303.725 393.922 320.607 386.583 337.854L386.581 337.858C379.235 354.753 370.787 370.366 361.234 384.694C352.044 399.03 341.926 410.623 330.876 419.463L330.874 419.465C320.156 427.965 308.312 432.225 295.357 432.225C280.504 432.225 268.077 425.343 258.097 411.666L258.093 411.66L258.088 411.653C248.461 397.583 244.431 375.995 245.899 346.985C246.635 331.177 249.392 313.541 254.165 294.082L254.166 294.076C259.308 274.245 266.285 254.415 275.097 234.588L275.1 234.581H275.101C284.281 214.751 294.931 196.387 307.053 179.49L307.058 179.484C319.555 162.577 333.346 148.966 348.435 138.662L348.439 138.658C363.922 128.337 380.704 123.172 398.775 123.172C407.973 123.172 415.734 124.457 422.041 127.049C428.462 129.189 433.054 131.526 435.743 134.085L461.844 123.21L461.937 123.172H475.855ZM387.773 142.325C372.17 142.325 358.549 149.03 346.895 162.506L346.894 162.505C335.589 175.633 326.816 193.712 320.595 216.769L320.593 216.772L284.287 347.145C279.537 364.317 279.186 379.062 283.179 391.408C285.356 397.39 288.379 401.835 292.224 404.786C296.066 407.735 300.769 409.222 306.359 409.222C315.353 409.222 324.218 404.907 332.96 396.165L332.968 396.158L333.821 395.329C342.626 386.668 350.931 375.253 358.73 361.072L358.734 361.063H358.735C367.158 346.415 375.033 330.298 382.36 312.712C389.689 294.755 396.286 276.616 402.149 258.293L402.151 258.287C408.383 239.592 413.698 221.998 418.096 205.507C422.472 189.096 425.757 175.231 427.954 163.91C425.42 159.3 420.577 154.639 413.355 149.945L413.343 149.938L413.331 149.929C406.464 144.869 397.955 142.325 387.773 142.325Z"
      fill="#63E2FF" stroke="black" />
    <path
      d="M147.718 18.6533L147.811 19.0342L242.884 407.021H278.198V426.724H147.375V407.021H202.798L171.137 277.647H81.1582L50.043 407.021H88.415V426.724H0.5V407.021H29.7627L124.836 19.0342L124.929 18.6533H147.718ZM85.7979 259.045H166.492L125.874 91.6973L85.7979 259.045Z"
      fill="#63E2FF" stroke="black" />
  </g>
</svg>