<svg width="1022" height="545" viewBox="0 0 1022 545" fill="none" xmlns="http://www.w3.org/2000/svg">
<path d="M942.87 39.0215C964.392 39.0215 981.634 43.1855 994.552 51.5615C1007.47 59.5908 1014.01 69.7751 1014.01 82.1104C1014.01 89.1551 1011.71 95.1647 1007.12 100.109C1002.51 105.069 996.49 107.54 989.095 107.54C982.413 107.54 976.919 105.603 972.656 101.696L972.641 101.682L972.626 101.665C968.772 97.4605 965.795 92.5569 963.696 86.96C961.616 81.4131 959.882 76.3829 958.493 71.8701L958.487 71.8486L954.896 58.001C953.597 57.0797 951.57 56.3509 948.757 55.8545C945.853 55.342 942.162 55.083 937.677 55.083C923.219 55.083 911.389 58.6962 902.146 65.8848C892.861 73.1066 885.289 82.3949 879.434 93.7598C873.91 104.808 869.595 116.374 866.487 128.459L866.486 128.463C863.436 139.985 860.887 150.509 858.833 160.036H962.768L962.564 160.686L957.371 177.306L957.261 177.656H854.981L804.167 418.77L804.166 418.771C799.311 441.313 792.374 461.781 783.352 480.173C774.316 498.592 762.144 513.203 746.834 523.989C731.496 534.796 712.172 540.182 688.896 540.182C668.751 540.182 652.037 536.187 638.781 528.166L638.148 527.788C624.957 519.815 618.279 509.584 618.279 497.093C618.279 490.048 620.574 484.038 625.165 479.094C629.771 474.134 635.795 471.662 643.19 471.662C649.989 471.662 655.371 473.476 659.271 477.159L659.645 477.521L659.652 477.529L659.659 477.538C663.263 481.469 666.252 485.86 668.626 490.711L669.093 491.688L669.101 491.705L669.107 491.723C671.189 497.274 672.753 502.485 673.798 507.354L677.388 521.202C678.687 522.125 680.674 522.853 683.401 523.349C686.218 523.861 689.778 524.119 694.089 524.119C708.198 524.119 719.501 520.508 728.046 513.33L728.054 513.323C736.988 506.107 743.865 496.827 748.683 485.471L748.687 485.462L748.69 485.454C753.869 474.407 757.839 462.841 760.602 450.757L760.604 450.748L760.605 450.74C763.72 438.974 766.314 428.249 768.39 418.563L819.162 177.656H738.129L738.268 177.046L740.864 165.619L740.947 165.257L741.317 165.231L823.005 159.544C827.861 137.144 835.12 116.966 844.787 99.0127C854.517 80.5964 867.382 65.9908 883.382 55.208C899.409 44.4072 919.248 39.0215 942.87 39.0215Z" stroke="#48C8FF"/>
<path d="M800.944 56.1611L800.818 56.7637L777.446 167.91L777.362 168.308H761.85L761.918 167.747L768.669 112.178C770.395 96.9837 767.602 87.2083 760.579 82.5264C753.416 77.751 743.827 75.3389 731.771 75.3389H658.423L626.956 221.843H699.164L713.104 156.277L713.188 155.882H729.791L729.663 156.485L697.981 306.065L697.897 306.462H681.293L681.422 305.858L695.317 240.501H623.106L584.366 422.841H668.501L668.377 423.442L664.742 441.101L664.659 441.5H499.516L499.64 440.899L503.274 423.24L503.357 422.841H546.987L621.045 74.8203H577.422L577.546 74.2188L581.182 56.5605L581.264 56.1611H800.944Z" stroke="#48C8FF"/>
<path d="M497.096 154.843L496.968 155.446L445.549 397.477C444.868 401.229 444.696 405.855 445.04 411.362L445.079 411.82C445.32 414.069 446.206 415.72 447.697 416.839C449.307 418.046 451.694 418.687 454.929 418.687C461.688 418.686 467.438 415.823 472.201 410.039L472.206 410.032L472.212 410.026C477.391 404.156 483.787 396.032 491.4 385.65L491.404 385.646L505.427 366.948L505.719 366.56L506.115 366.84L514.945 373.072L515.359 373.365L515.061 373.775L502.596 390.914C491.509 406.158 481.112 419.328 471.405 430.422L471.4 430.429L471.399 430.428C461.62 441.255 450.064 446.693 436.75 446.693C430.763 446.693 424.962 444.932 419.354 441.429L418.857 441.121C413.786 437.862 410.43 432.285 408.734 424.486L408.733 424.481C406.976 416.046 408.391 404.694 412.901 390.47L446.976 282.052H440.227L430.992 309.756C425.794 325.351 419.73 341.291 412.8 357.576L412.798 357.58C405.862 373.533 397.884 388.275 388.864 401.805C380.186 415.342 370.63 426.29 360.194 434.639L360.193 434.64C350.069 442.669 338.881 446.693 326.643 446.693C312.608 446.693 300.868 440.19 291.44 427.271L291.436 427.266L291.432 427.259C282.337 413.966 278.531 393.577 279.918 366.185C280.612 351.257 283.216 334.605 287.723 316.23L287.725 316.224C292.579 297.498 299.167 278.775 307.487 260.054L307.491 260.047C316.16 241.322 326.217 223.982 337.662 208.027L337.666 208.022C349.467 192.057 362.49 179.204 376.739 169.473L376.744 169.47C391.366 159.722 407.217 154.843 424.285 154.843C432.979 154.843 440.315 156.058 446.277 158.511C452.321 160.527 456.651 162.728 459.194 165.142L483.821 154.881L483.913 154.843H497.096ZM413.897 172.982C399.175 172.982 386.322 179.307 375.322 192.024L375.323 192.025C364.653 204.417 356.371 221.481 350.497 243.248L350.496 243.252L316.217 366.344C311.733 382.553 311.403 396.469 315.17 408.118C317.224 413.763 320.075 417.955 323.7 420.737C327.323 423.517 331.756 424.919 337.029 424.919C345.511 424.919 353.875 420.85 362.126 412.6L362.133 412.593L362.938 411.81C371.249 403.634 379.089 392.86 386.452 379.473L386.456 379.464C394.407 365.635 401.842 350.421 408.76 333.819C415.68 316.865 421.908 299.738 427.444 282.438L427.446 282.432L428.539 279.135C433.953 262.709 438.606 247.198 442.499 232.601C446.629 217.112 449.731 204.026 451.806 193.34C449.415 188.995 444.848 184.601 438.036 180.173L438.023 180.165L438.012 180.156C431.534 175.383 423.506 172.982 413.897 172.982Z" stroke="#48C8FF"/>
<path d="M226.365 56.1611L226.382 56.6445L238.83 422.841H271.145L271.041 423.428L267.925 441.087L267.852 441.5H145.303L145.406 440.913L148.522 423.254L148.595 422.841H201.993L197.872 301.787H112.462L57.8594 422.841H92.998L92.8945 423.428L89.7783 441.087L89.7061 441.5H6.62891L6.73242 440.913L9.84863 423.254L9.9209 422.841H38.5859L205.691 56.4541L205.824 56.1611H226.365ZM120.703 283.129H197.319L192.211 124.274L120.703 283.129Z" stroke="#48C8FF"/>
<mask id="path-5-outside-1_103_89" maskUnits="userSpaceOnUse" x="4" y="51" width="939" height="396" fill="black">
<rect fill="white" x="4" y="51" width="939" height="396"/>
<path d="M11.7986 441C7.64363 441 5.56612 439.269 5.56612 435.806C5.56612 432.69 8.33613 430.439 13.8761 429.054L22.1862 427.496C29.1112 426.111 35.1706 422.822 40.3644 417.628C45.2119 412.088 49.8863 404.47 54.3875 394.775L209.681 70.165C211.412 66.7025 213.144 64.4518 214.875 63.4131C216.606 62.3743 218.164 61.8549 219.549 61.8549C221.281 61.8549 222.666 62.3743 223.704 63.4131C225.089 64.4518 225.782 66.7025 225.782 70.165L231.495 399.45C231.841 409.145 233.053 415.897 235.131 419.706C237.208 423.168 241.536 425.765 248.115 427.496L254.867 429.054C259.022 430.093 261.099 432.171 261.099 435.287C261.099 439.096 258.156 441 252.27 441H166.573C162.072 441 159.821 439.269 159.821 435.806C159.821 431.997 163.284 429.747 170.209 429.054L180.596 428.016C186.482 427.323 190.464 425.419 192.542 422.302C194.966 419.186 196.177 413.819 196.177 406.202L195.139 325.698C195.139 316.696 190.464 312.195 181.115 312.195H125.542C116.54 312.195 109.788 316.696 105.286 325.698L71.527 395.295C62.1782 415.031 65.2944 425.938 80.8758 428.016L88.147 429.054C93.3408 429.747 95.9377 431.824 95.9377 435.287C95.9377 439.096 92.9945 441 87.1083 441H11.7986ZM127.62 296.613H185.79C191.676 296.613 194.619 293.67 194.619 287.784L193.581 145.994H190.984L122.945 287.784C121.56 290.208 121.387 292.285 122.426 294.016C123.465 295.748 125.196 296.613 127.62 296.613ZM318.466 445.674C306.001 445.674 296.306 440.307 289.381 429.574C282.456 418.84 278.994 403.085 278.994 382.31C278.994 362.574 281.764 342.838 287.304 323.101C292.844 303.019 300.461 283.975 310.156 265.97C319.851 247.965 330.758 232.037 342.877 218.187C355.342 204.337 368.326 193.43 381.83 185.467C395.68 177.157 409.357 173.002 422.861 173.002C429.44 173.002 435.672 174.387 441.559 177.157C447.445 179.58 452.292 183.562 456.101 189.102C458.179 192.219 460.256 193.777 462.334 193.777C464.411 193.777 466.489 192.219 468.566 189.102C472.375 183.562 475.491 180.1 477.915 178.715C480.339 176.983 482.589 176.118 484.667 176.118C489.168 176.118 490.899 178.542 489.861 183.389L443.636 382.31C438.442 404.817 441.905 416.07 454.024 416.07C461.987 416.07 469.086 410.703 475.318 399.969C481.897 389.235 488.476 372.615 495.054 350.109C496.093 346.3 498.344 344.396 501.806 344.396C504.23 344.396 505.788 345.435 506.481 347.512C507.173 349.59 507.173 352.013 506.481 354.783C499.902 387.331 491.072 410.703 479.992 424.899C468.912 438.749 455.582 445.674 440 445.674C426.497 445.674 416.802 439.961 410.915 428.535C405.375 417.109 404.856 401.527 409.357 381.791L416.109 353.225C416.802 350.802 416.282 349.417 414.551 349.07C413.166 348.724 411.954 349.59 410.915 351.667C391.872 386.639 374.905 411.049 360.016 424.899C345.474 438.749 331.624 445.674 318.466 445.674ZM331.451 419.186C339.761 419.186 348.936 414.166 358.978 404.124C369.019 394.083 378.887 381.099 388.582 365.171C398.623 349.243 407.799 332.104 416.109 313.753C424.419 295.401 430.998 277.743 435.845 260.776C441.039 243.81 443.636 229.441 443.636 217.668C443.636 196.547 436.192 185.986 421.303 185.986C412.3 185.986 402.778 190.141 392.737 198.451C382.696 206.415 373.001 217.322 363.652 231.172C354.65 245.022 346.34 260.776 338.722 278.435C331.451 295.748 325.564 313.926 321.063 332.97C316.562 351.667 314.311 370.019 314.311 388.024C314.311 400.142 315.696 408.452 318.466 412.954C321.583 417.109 325.911 419.186 331.451 419.186ZM506.809 441C501.962 441 499.538 439.269 499.538 435.806C499.538 431.997 503.001 429.574 509.926 428.535L520.313 426.977C527.931 425.938 533.124 424.207 535.894 421.783C539.011 419.013 541.261 413.992 542.646 406.721L613.282 101.328C615.013 94.0563 615.013 89.2088 613.282 86.785C611.55 84.3613 607.222 82.4569 600.297 81.0719L589.91 78.9944C585.408 77.9556 583.158 76.0512 583.158 73.2812C583.158 69.1262 586.274 67.0487 592.507 67.0487H759.746C768.402 67.0487 771.865 71.0306 770.133 78.9944L754.552 165.211C753.513 171.097 750.743 174.04 746.242 174.04C741.395 174.04 739.317 171.79 740.01 167.288L741.048 149.11C742.78 125.219 738.971 107.733 729.622 96.6532C720.273 85.5731 708.328 80.0331 693.785 80.0331C678.896 80.0331 667.989 82.4569 661.064 87.3044C654.139 92.1519 649.465 99.5963 647.041 109.638L618.995 232.211C617.956 237.058 619.86 239.482 624.708 239.482H643.925C658.814 239.482 669.894 231.345 677.165 215.071L689.111 189.622C690.149 187.544 691.188 185.986 692.227 184.947C693.266 183.562 694.824 182.87 696.901 182.87C698.632 182.87 700.191 183.735 701.576 185.467C702.961 186.852 703.307 188.929 702.614 191.699L675.607 307.52C673.876 313.406 671.106 316.35 667.297 316.35C663.142 316.35 661.064 314.099 661.064 309.598V284.668C661.064 272.549 659.506 264.585 656.39 260.776C653.274 256.967 647.734 255.063 639.77 255.063H621.072C615.878 255.063 612.762 257.487 611.723 262.334L578.483 404.124C576.752 411.396 576.752 416.589 578.483 419.706C580.215 422.476 584.543 424.38 591.468 425.419L618.995 429.054C623.15 429.401 625.227 431.305 625.227 434.767C625.227 438.922 622.284 441 616.398 441H506.809ZM748.388 441C743.887 441 742.156 438.749 743.195 434.248L795.652 209.877C798.768 197.066 794.613 190.66 783.187 190.66H772.28C766.74 190.66 763.97 188.237 763.97 183.389C763.97 178.542 767.086 176.118 773.319 176.118C784.052 176.118 792.016 174.733 797.21 171.963C802.75 169.193 806.386 163.653 808.117 155.343C812.618 135.606 819.197 118.121 827.853 102.886C836.856 87.3044 847.589 75.0125 860.054 66.0099C872.52 57.0074 886.196 52.5062 901.085 52.5062C913.204 52.5062 922.899 55.4493 930.17 61.3356C937.788 66.8756 941.597 74.6662 941.597 84.7075C941.597 92.325 939.519 98.5576 935.364 103.405C931.555 107.906 926.708 110.157 920.822 110.157C913.55 110.157 908.703 108.079 906.279 103.924C904.202 99.7694 902.817 94.9219 902.124 89.3819C901.778 83.8419 900.739 78.9944 899.008 74.8394C897.277 70.6844 893.295 68.6069 887.062 68.6069C879.098 68.6069 872 72.5887 865.768 80.5525C859.881 88.17 854.514 102.713 849.667 124.18L839.279 169.366C838.241 173.867 840.145 176.118 844.993 176.118H886.543C893.121 176.118 895.718 178.542 894.333 183.389C893.295 188.237 890.178 190.66 884.985 190.66H839.799C836.336 190.66 834.086 192.392 833.047 195.854L777.474 435.287C776.435 439.096 774.011 441 770.202 441H748.388Z"/>
</mask>
<path d="M13.8761 429.054L13.6919 428.071L13.6625 428.077L13.6336 428.084L13.8761 429.054ZM22.1862 427.496L22.3705 428.479L22.3823 428.477L22.1862 427.496ZM40.3644 417.628L41.0715 418.335L41.095 418.312L41.1169 418.287L40.3644 417.628ZM54.3875 394.775L53.4854 394.344L53.4805 394.354L54.3875 394.775ZM209.681 70.165L208.787 69.7177L208.783 69.7255L208.779 69.7334L209.681 70.165ZM214.875 63.4131L214.36 62.5556L214.36 62.5556L214.875 63.4131ZM223.704 63.4131L222.997 64.1202L223.048 64.1704L223.104 64.2131L223.704 63.4131ZM225.782 70.165H224.782V70.1736L224.782 70.1823L225.782 70.165ZM231.495 399.45L230.495 399.467L230.495 399.476L230.496 399.486L231.495 399.45ZM235.131 419.706L234.253 420.184L234.263 420.202L234.273 420.22L235.131 419.706ZM248.115 427.496L247.861 428.463L247.875 428.467L247.89 428.471L248.115 427.496ZM254.867 429.054L255.11 428.084L255.101 428.082L255.092 428.08L254.867 429.054ZM170.209 429.054L170.109 428.059L170.209 429.054ZM180.596 428.016L180.696 429.011L180.704 429.01L180.713 429.009L180.596 428.016ZM192.542 422.302L191.752 421.688L191.73 421.717L191.71 421.748L192.542 422.302ZM196.177 406.202H197.177L197.177 406.189L196.177 406.202ZM195.139 325.698H194.139L194.139 325.711L195.139 325.698ZM105.286 325.698L104.392 325.251L104.387 325.262L105.286 325.698ZM71.527 395.295L70.6272 394.858L70.6232 394.867L71.527 395.295ZM80.8758 428.016L81.0172 427.026L81.0079 427.024L80.8758 428.016ZM88.147 429.054L88.0056 430.044L88.0149 430.046L88.147 429.054ZM194.619 287.784H195.619L195.619 287.777L194.619 287.784ZM193.581 145.994L194.58 145.987L194.573 144.994H193.581V145.994ZM190.984 145.994V144.994H190.354L190.082 145.561L190.984 145.994ZM122.945 287.784L123.814 288.28L123.831 288.249L123.847 288.216L122.945 287.784ZM11.7986 441V440C9.83537 440 8.54908 439.587 7.76443 438.933C7.0147 438.309 6.56612 437.331 6.56612 435.806H5.56612H4.56612C4.56612 437.744 5.15629 439.363 6.48406 440.47C7.77692 441.547 9.60689 442 11.7986 442V441ZM5.56612 435.806H6.56612C6.56612 434.595 7.08475 433.524 8.27422 432.557C9.4976 431.563 11.415 430.7 14.1187 430.024L13.8761 429.054L13.6336 428.084C10.7973 428.793 8.55966 429.748 7.01303 431.005C5.4325 432.289 4.56612 433.901 4.56612 435.806H5.56612ZM13.8761 429.054L14.0604 430.037L22.3705 428.479L22.1862 427.496L22.0019 426.513L13.6919 428.071L13.8761 429.054ZM22.1862 427.496L22.3823 428.477C29.5089 427.051 35.744 423.663 41.0715 418.335L40.3644 417.628L39.6573 416.921C34.5972 421.981 28.7134 425.171 21.9901 426.516L22.1862 427.496ZM40.3644 417.628L41.1169 418.287C46.0482 412.651 50.7697 404.942 55.2945 395.197L54.3875 394.775L53.4805 394.354C49.0029 403.999 44.3756 411.525 39.6118 416.97L40.3644 417.628ZM54.3875 394.775L55.2896 395.207L210.583 70.5965L209.681 70.165L208.779 69.7334L53.4855 394.344L54.3875 394.775ZM209.681 70.165L210.576 70.6122C212.287 67.1887 213.913 65.1565 215.389 64.2706L214.875 63.4131L214.36 62.5556C212.375 63.7471 210.538 66.2162 208.787 69.7177L209.681 70.165ZM214.875 63.4131L215.389 64.2706C217.032 63.285 218.41 62.8549 219.549 62.8549V61.8549V60.8549C217.918 60.8549 216.18 61.4637 214.36 62.5556L214.875 63.4131ZM219.549 61.8549V62.8549C221.066 62.8549 222.179 63.3022 222.997 64.1202L223.704 63.4131L224.411 62.7059C223.152 61.4465 221.495 60.8549 219.549 60.8549V61.8549ZM223.704 63.4131L223.104 64.2131C223.576 64.5671 224.001 65.1794 224.307 66.1742C224.613 67.1709 224.782 68.4911 224.782 70.165H225.782H226.782C226.782 68.3763 226.604 66.84 226.218 65.586C225.832 64.3302 225.217 63.2978 224.304 62.6131L223.704 63.4131ZM225.782 70.165L224.782 70.1823L230.495 399.467L231.495 399.45L232.495 399.433L226.782 70.1476L225.782 70.165ZM231.495 399.45L230.496 399.486C230.842 409.189 232.053 416.152 234.253 420.184L235.131 419.706L236.009 419.227C234.053 415.642 232.84 409.1 232.494 399.414L231.495 399.45ZM235.131 419.706L234.273 420.22C236.552 424.018 241.191 426.708 247.861 428.463L248.115 427.496L248.37 426.529C241.881 424.822 237.865 422.319 235.988 419.191L235.131 419.706ZM248.115 427.496L247.89 428.471L254.642 430.029L254.867 429.054L255.092 428.08L248.34 426.522L248.115 427.496ZM254.867 429.054L254.624 430.024C256.602 430.519 257.969 431.234 258.834 432.099C259.673 432.938 260.099 433.976 260.099 435.287H261.099H262.099C262.099 433.481 261.487 431.923 260.248 430.684C259.036 429.472 257.287 428.629 255.11 428.084L254.867 429.054ZM261.099 435.287H260.099C260.099 436.887 259.508 437.982 258.349 438.732C257.115 439.53 255.137 440 252.27 440V441V442C255.289 442 257.726 441.517 259.435 440.411C261.22 439.257 262.099 437.496 262.099 435.287H261.099ZM252.27 441V440H166.573V441V442H252.27V441ZM166.573 441V440C164.422 440 162.993 439.582 162.119 438.909C161.294 438.274 160.821 437.303 160.821 435.806H159.821H158.821C158.821 437.772 159.473 439.397 160.899 440.494C162.275 441.553 164.222 442 166.573 442V441ZM159.821 435.806H160.821C160.821 434.273 161.487 433.059 162.963 432.1C164.498 431.102 166.909 430.389 170.308 430.049L170.209 429.054L170.109 428.059C166.583 428.412 163.8 429.171 161.873 430.423C159.886 431.715 158.821 433.531 158.821 435.806H159.821ZM170.209 429.054L170.308 430.049L180.696 429.011L180.596 428.016L180.497 427.021L170.109 428.059L170.209 429.054ZM180.596 428.016L180.713 429.009C186.722 428.302 191.059 426.33 193.374 422.857L192.542 422.302L191.71 421.748C189.87 424.508 186.243 426.344 180.479 427.022L180.596 428.016ZM192.542 422.302L193.331 422.916C195.97 419.523 197.177 413.865 197.177 406.202H196.177H195.177C195.177 413.774 193.961 418.849 191.752 421.688L192.542 422.302ZM196.177 406.202L197.177 406.189L196.139 325.685L195.139 325.698L194.139 325.711L195.177 406.215L196.177 406.202ZM195.139 325.698H196.139C196.139 321.033 194.925 317.353 192.326 314.85C189.735 312.354 185.935 311.195 181.115 311.195V312.195V313.195C185.645 313.195 188.857 314.286 190.939 316.291C193.015 318.289 194.139 321.361 194.139 325.698H195.139ZM181.115 312.195V311.195H125.542V312.195V313.195H181.115V312.195ZM125.542 312.195V311.195C120.866 311.195 116.73 312.366 113.172 314.738C109.62 317.106 106.702 320.631 104.392 325.251L105.286 325.698L106.181 326.146C108.372 321.763 111.081 318.536 114.281 316.403C117.475 314.273 121.216 313.195 125.542 313.195V312.195ZM105.286 325.698L104.387 325.262L70.6272 394.858L71.527 395.295L72.4267 395.731L106.186 326.135L105.286 325.698ZM71.527 395.295L70.6232 394.867C65.9284 404.778 64.2272 412.728 65.8911 418.552C67.6009 424.536 72.7384 427.939 80.7436 429.007L80.8758 428.016L81.0079 427.024C73.4318 426.014 69.2205 422.925 67.8141 418.003C66.3617 412.919 67.7767 405.548 72.4307 395.723L71.527 395.295ZM80.8758 428.016L80.7343 429.006L88.0056 430.044L88.147 429.054L88.2884 428.064L81.0172 427.026L80.8758 428.016ZM88.147 429.054L88.0149 430.046C90.526 430.38 92.2684 431.035 93.3653 431.913C94.4155 432.753 94.9377 433.845 94.9377 435.287H95.9377H96.9377C96.9377 433.266 96.1614 431.588 94.6147 430.351C93.1148 429.151 90.9618 428.421 88.2792 428.063L88.147 429.054ZM95.9377 435.287H94.9377C94.9377 436.887 94.3457 437.982 93.1871 438.732C91.9535 439.53 89.9756 440 87.1083 440V441V442C90.1273 442 92.5641 441.517 94.2736 440.411C96.0581 439.257 96.9377 437.496 96.9377 435.287H95.9377ZM87.1083 441V440H11.7986V441V442H87.1083V441ZM127.62 296.613V297.613H185.79V296.613V295.613H127.62V296.613ZM185.79 296.613V297.613C188.887 297.613 191.394 296.838 193.119 295.113C194.844 293.388 195.619 290.881 195.619 287.784H194.619H193.619C193.619 290.573 192.923 292.481 191.705 293.699C190.487 294.917 188.579 295.613 185.79 295.613V296.613ZM194.619 287.784L195.619 287.777L194.58 145.987L193.581 145.994L192.581 146.001L193.619 287.791L194.619 287.784ZM193.581 145.994V144.994H190.984V145.994V146.994H193.581V145.994ZM190.984 145.994L190.082 145.561L122.044 287.351L122.945 287.784L123.847 288.216L191.885 146.427L190.984 145.994ZM122.945 287.784L122.077 287.288C120.59 289.89 120.275 292.375 121.568 294.531L122.426 294.016L123.283 293.502C122.499 292.195 122.53 290.525 123.814 288.28L122.945 287.784ZM122.426 294.016L121.568 294.531C122.827 296.628 124.927 297.613 127.62 297.613V296.613V295.613C125.465 295.613 124.103 294.867 123.283 293.502L122.426 294.016ZM289.381 429.574L288.541 430.116L288.541 430.116L289.381 429.574ZM287.304 323.101L288.266 323.372L288.268 323.367L287.304 323.101ZM310.156 265.97L311.037 266.444L311.037 266.444L310.156 265.97ZM342.877 218.187L342.134 217.518L342.124 217.529L342.877 218.187ZM381.83 185.467L382.338 186.328L382.345 186.324L381.83 185.467ZM441.559 177.157L441.133 178.061L441.155 178.072L441.178 178.081L441.559 177.157ZM456.101 189.102L456.933 188.548L456.929 188.542L456.925 188.536L456.101 189.102ZM468.566 189.102L467.742 188.536L467.738 188.542L467.734 188.548L468.566 189.102ZM477.915 178.715L478.411 179.583L478.455 179.558L478.496 179.528L477.915 178.715ZM489.861 183.389L490.835 183.615L490.837 183.607L490.838 183.599L489.861 183.389ZM443.636 382.31L442.662 382.084L442.662 382.086L443.636 382.31ZM475.318 399.969L474.465 399.447L474.459 399.457L474.453 399.467L475.318 399.969ZM495.054 350.109L496.014 350.39L496.017 350.381L496.019 350.372L495.054 350.109ZM506.481 347.512L507.429 347.196L507.429 347.196L506.481 347.512ZM506.481 354.783L505.511 354.541L505.505 354.563L505.501 354.585L506.481 354.783ZM479.992 424.899L480.773 425.524L480.781 425.515L479.992 424.899ZM410.915 428.535L410.016 428.971L410.021 428.982L410.026 428.993L410.915 428.535ZM409.357 381.791L408.384 381.561L408.382 381.569L409.357 381.791ZM416.109 353.225L415.148 352.951L415.141 352.973L415.136 352.995L416.109 353.225ZM414.551 349.07L414.308 350.04L414.332 350.046L414.355 350.051L414.551 349.07ZM410.915 351.667L411.794 352.145L411.802 352.13L411.81 352.114L410.915 351.667ZM360.016 424.899L359.335 424.167L359.327 424.175L360.016 424.899ZM388.582 365.171L387.736 364.638L387.732 364.644L387.728 364.651L388.582 365.171ZM416.109 313.753L415.198 313.34L415.198 313.34L416.109 313.753ZM435.845 260.776L434.889 260.484L434.886 260.493L434.884 260.502L435.845 260.776ZM392.737 198.451L393.359 199.235L393.367 199.228L393.375 199.221L392.737 198.451ZM363.652 231.172L362.823 230.612L362.818 230.62L362.814 230.627L363.652 231.172ZM338.722 278.435L337.804 278.039L337.8 278.048L338.722 278.435ZM321.063 332.97L322.035 333.204L322.036 333.2L321.063 332.97ZM318.466 412.954L317.615 413.478L317.639 413.517L317.666 413.554L318.466 412.954ZM318.466 445.674V444.674C306.351 444.674 296.968 439.488 290.221 429.032L289.381 429.574L288.541 430.116C295.645 441.127 305.651 446.674 318.466 446.674V445.674ZM289.381 429.574L290.221 429.032C283.447 418.531 279.994 403.002 279.994 382.31H278.994H277.994C277.994 403.169 281.465 419.148 288.541 430.116L289.381 429.574ZM278.994 382.31H279.994C279.994 362.669 282.75 343.023 288.266 323.372L287.304 323.101L286.341 322.831C280.777 342.652 277.994 362.479 277.994 382.31H278.994ZM287.304 323.101L288.268 323.367C293.788 303.356 301.378 284.382 311.037 266.444L310.156 265.97L309.276 265.496C299.545 283.568 291.899 302.682 286.34 322.836L287.304 323.101ZM310.156 265.97L311.037 266.444C320.7 248.498 331.565 232.634 343.63 218.846L342.877 218.187L342.124 217.529C329.951 231.441 319.003 247.432 309.276 265.496L310.156 265.97ZM342.877 218.187L343.62 218.856C356.03 205.068 368.937 194.231 382.338 186.328L381.83 185.467L381.322 184.605C367.716 192.629 354.654 203.606 342.134 217.518L342.877 218.187ZM381.83 185.467L382.345 186.324C396.07 178.089 409.571 174.002 422.861 174.002V173.002V172.002C409.143 172.002 395.291 176.224 381.316 184.609L381.83 185.467ZM422.861 173.002V174.002C429.294 174.002 435.381 175.355 441.133 178.061L441.559 177.157L441.984 176.252C435.963 173.418 429.585 172.002 422.861 172.002V173.002ZM441.559 177.157L441.178 178.081C446.874 180.427 451.572 184.279 455.277 189.669L456.101 189.102L456.925 188.536C453.013 182.845 448.015 178.734 441.939 176.232L441.559 177.157ZM456.101 189.102L455.269 189.657C457.387 192.834 459.725 194.777 462.334 194.777V193.777V192.777C460.787 192.777 458.97 191.603 456.933 188.548L456.101 189.102ZM462.334 193.777V194.777C464.942 194.777 467.28 192.834 469.398 189.657L468.566 189.102L467.734 188.548C465.697 191.603 463.88 192.777 462.334 192.777V193.777ZM468.566 189.102L469.39 189.669C473.202 184.125 476.207 180.843 478.411 179.583L477.915 178.715L477.419 177.846C474.776 179.357 471.548 183 467.742 188.536L468.566 189.102ZM477.915 178.715L478.496 179.528C480.821 177.868 482.87 177.118 484.667 177.118V176.118V175.118C482.308 175.118 479.856 176.099 477.334 177.901L477.915 178.715ZM484.667 176.118V177.118C486.767 177.118 487.931 177.682 488.528 178.517C489.149 179.386 489.381 180.855 488.883 183.18L489.861 183.389L490.838 183.599C491.379 181.075 491.265 178.909 490.155 177.354C489.02 175.765 487.068 175.118 484.667 175.118V176.118ZM489.861 183.389L488.887 183.163L442.662 382.084L443.636 382.31L444.61 382.537L490.835 183.615L489.861 183.389ZM443.636 382.31L442.662 382.086C440.057 393.374 439.569 402.033 441.382 407.924C442.297 410.897 443.811 413.21 445.972 414.771C448.13 416.329 450.839 417.07 454.024 417.07V416.07V415.07C451.149 415.07 448.88 414.404 447.143 413.149C445.408 411.896 444.11 409.989 443.293 407.336C441.644 401.974 442.022 393.753 444.61 382.535L443.636 382.31ZM454.024 416.07V417.07C462.515 417.07 469.878 411.329 476.183 400.471L475.318 399.969L474.453 399.467C468.293 410.077 461.46 415.07 454.024 415.07V416.07ZM475.318 399.969L476.171 400.492C482.82 389.643 489.428 372.921 496.014 350.39L495.054 350.109L494.095 349.828C487.523 372.309 480.974 388.828 474.465 399.447L475.318 399.969ZM495.054 350.109L496.019 350.372C496.503 348.598 497.241 347.371 498.167 346.588C499.082 345.814 500.268 345.396 501.806 345.396V344.396V343.396C499.882 343.396 498.212 343.93 496.875 345.061C495.551 346.181 494.645 347.811 494.09 349.846L495.054 350.109ZM501.806 344.396V345.396C502.878 345.396 503.665 345.625 504.238 346.007C504.802 346.383 505.244 346.963 505.532 347.828L506.481 347.512L507.429 347.196C507.025 345.983 506.342 345.006 505.347 344.343C504.362 343.686 503.158 343.396 501.806 343.396V344.396ZM506.481 347.512L505.532 347.828C506.149 349.678 506.171 351.9 505.511 354.541L506.481 354.783L507.451 355.026C508.176 352.127 508.198 349.501 507.429 347.196L506.481 347.512ZM506.481 354.783L505.501 354.585C498.931 387.089 490.139 410.274 479.204 424.284L479.992 424.899L480.781 425.515C492.006 411.132 500.873 387.574 507.461 354.982L506.481 354.783ZM479.992 424.899L479.212 424.275C468.292 437.925 455.233 444.674 440 444.674V445.674V446.674C455.93 446.674 469.533 439.574 480.773 425.524L479.992 424.899ZM440 445.674V444.674C433.391 444.674 427.775 443.277 423.109 440.528C418.446 437.78 414.674 433.647 411.804 428.077L410.915 428.535L410.026 428.993C413.043 434.849 417.061 439.286 422.094 442.251C427.123 445.215 433.106 446.674 440 446.674V445.674ZM410.915 428.535L411.815 428.099C406.418 416.967 405.853 401.651 410.332 382.013L409.357 381.791L408.382 381.569C403.859 401.404 404.333 417.25 410.016 428.971L410.915 428.535ZM409.357 381.791L410.33 382.021L417.082 353.455L416.109 353.225L415.136 352.995L408.384 381.561L409.357 381.791ZM416.109 353.225L417.071 353.5C417.438 352.213 417.547 351.009 417.175 350.018C416.769 348.935 415.875 348.315 414.747 348.09L414.551 349.07L414.355 350.051C414.958 350.172 415.189 350.418 415.303 350.72C415.45 351.114 415.472 351.814 415.148 352.951L416.109 353.225ZM414.551 349.07L414.794 348.1C413.803 347.853 412.855 348.051 412.022 348.646C411.229 349.212 410.576 350.109 410.021 351.22L410.915 351.667L411.81 352.114C412.293 351.148 412.765 350.573 413.185 350.274C413.564 350.003 413.914 349.942 414.308 350.04L414.551 349.07ZM410.915 351.667L410.037 351.189C391.005 386.138 374.101 410.431 359.335 424.167L360.016 424.899L360.698 425.632C375.709 411.667 392.738 387.139 411.794 352.145L410.915 351.667ZM360.016 424.899L359.327 424.175C344.875 437.939 331.26 444.674 318.466 444.674V445.674V446.674C331.987 446.674 346.073 439.56 360.706 425.623L360.016 424.899ZM331.451 419.186V420.186C340.161 420.186 349.58 414.936 359.685 404.831L358.978 404.124L358.271 403.417C348.293 413.395 339.36 418.186 331.451 418.186V419.186ZM358.978 404.124L359.685 404.831C369.797 394.719 379.712 381.667 389.436 365.691L388.582 365.171L387.728 364.651C378.062 380.53 368.241 393.447 358.271 403.417L358.978 404.124ZM388.582 365.171L389.428 365.704C399.495 349.735 408.692 332.555 417.02 314.165L416.109 313.753L415.198 313.34C406.906 331.653 397.751 348.751 387.736 364.638L388.582 365.171ZM416.109 313.753L417.02 314.165C425.348 295.775 431.944 278.07 436.807 261.051L435.845 260.776L434.884 260.502C430.052 277.415 423.491 295.027 415.198 313.34L416.109 313.753ZM435.845 260.776L436.802 261.069C442.011 244.051 444.636 229.576 444.636 217.668H443.636H442.636C442.636 229.305 440.067 243.569 434.889 260.484L435.845 260.776ZM443.636 217.668H444.636C444.636 207.02 442.765 198.856 438.87 193.33C434.93 187.741 429.015 184.986 421.303 184.986V185.986V186.986C428.479 186.986 433.731 189.512 437.235 194.483C440.785 199.518 442.636 207.194 442.636 217.668H443.636ZM421.303 185.986V184.986C411.983 184.986 402.242 189.287 392.1 197.681L392.737 198.451L393.375 199.221C403.315 190.995 412.618 186.986 421.303 186.986V185.986ZM392.737 198.451L392.116 197.668C381.974 205.711 372.213 216.702 362.823 230.612L363.652 231.172L364.481 231.731C373.789 217.942 383.418 207.119 393.359 199.235L392.737 198.451ZM363.652 231.172L362.814 230.627C353.776 244.531 345.44 260.337 337.804 278.039L338.722 278.435L339.64 278.831C347.239 261.216 355.523 245.513 364.491 231.717L363.652 231.172ZM338.722 278.435L337.8 278.048C330.506 295.413 324.603 313.644 320.09 332.74L321.063 332.97L322.036 333.2C326.525 314.207 332.395 296.082 339.644 278.822L338.722 278.435ZM321.063 332.97L320.091 332.736C315.572 351.505 313.311 369.934 313.311 388.024H314.311H315.311C315.311 370.103 317.551 351.83 322.035 333.204L321.063 332.97ZM314.311 388.024H313.311C313.311 394.116 313.659 399.282 314.364 403.51C315.066 407.725 316.134 411.071 317.615 413.478L318.466 412.954L319.318 412.43C318.029 410.335 317.019 407.275 316.336 403.181C315.656 399.098 315.311 394.05 315.311 388.024H314.311ZM318.466 412.954L317.666 413.554C320.986 417.979 325.62 420.186 331.451 420.186V419.186V418.186C326.201 418.186 322.179 416.238 319.266 412.354L318.466 412.954ZM509.926 428.535L510.074 429.524L510.074 429.524L509.926 428.535ZM520.313 426.977L520.178 425.986L520.165 425.988L520.313 426.977ZM535.894 421.783L536.553 422.536L536.559 422.53L535.894 421.783ZM542.646 406.721L541.672 406.496L541.668 406.515L541.664 406.534L542.646 406.721ZM613.282 101.328L612.309 101.096L612.307 101.102L613.282 101.328ZM613.282 86.785L614.095 86.2038L614.095 86.2038L613.282 86.785ZM600.297 81.0719L600.493 80.0913L600.297 81.0719ZM589.91 78.9944L589.685 79.9688L589.699 79.9721L589.714 79.975L589.91 78.9944ZM770.133 78.9944L769.156 78.7819L769.152 78.7992L769.149 78.8165L770.133 78.9944ZM754.552 165.211L753.568 165.033L753.567 165.037L754.552 165.211ZM740.01 167.288L740.998 167.44L741.005 167.393L741.008 167.345L740.01 167.288ZM741.048 149.11L740.051 149.038L740.05 149.046L740.05 149.053L741.048 149.11ZM729.622 96.6532L728.858 97.298L728.858 97.298L729.622 96.6532ZM661.064 87.3044L660.491 86.4852L660.491 86.4852L661.064 87.3044ZM647.041 109.638L646.069 109.403L646.066 109.415L647.041 109.638ZM618.995 232.211L618.02 231.987L618.017 232.001L618.995 232.211ZM677.165 215.071L676.26 214.646L676.256 214.655L676.252 214.663L677.165 215.071ZM689.111 189.622L688.216 189.174L688.211 189.186L688.205 189.197L689.111 189.622ZM692.227 184.947L692.934 185.654L692.984 185.604L693.027 185.547L692.227 184.947ZM701.576 185.467L700.795 186.091L700.829 186.135L700.869 186.174L701.576 185.467ZM702.614 191.699L701.644 191.457L701.642 191.464L701.641 191.472L702.614 191.699ZM675.607 307.52L676.566 307.802L676.574 307.775L676.581 307.747L675.607 307.52ZM656.39 260.776L655.616 261.409L655.616 261.409L656.39 260.776ZM611.723 262.334L612.697 262.563L612.699 262.553L612.701 262.544L611.723 262.334ZM578.483 404.124L579.456 404.356L579.457 404.352L578.483 404.124ZM578.483 419.706L577.609 420.191L577.622 420.214L577.635 420.236L578.483 419.706ZM591.468 425.419L591.319 426.408L591.328 426.409L591.337 426.41L591.468 425.419ZM618.995 429.054L618.864 430.046L618.888 430.049L618.912 430.051L618.995 429.054ZM506.809 441V440C504.474 440 502.903 439.578 501.937 438.888C501.033 438.242 500.538 437.275 500.538 435.806H499.538H498.538C498.538 437.8 499.255 439.43 500.775 440.515C502.233 441.557 504.297 442 506.809 442V441ZM499.538 435.806H500.538C500.538 434.268 501.21 433 502.708 431.951C504.256 430.868 506.676 430.034 510.074 429.524L509.926 428.535L509.777 427.546C506.25 428.075 503.476 428.972 501.561 430.313C499.597 431.688 498.538 433.536 498.538 435.806H499.538ZM509.926 428.535L510.074 429.524L520.461 427.966L520.313 426.977L520.165 425.988L509.777 427.546L509.926 428.535ZM520.313 426.977L520.448 427.968C528.089 426.926 533.545 425.168 536.553 422.536L535.894 421.783L535.236 421.03C532.704 423.246 527.772 424.95 520.178 425.986L520.313 426.977ZM535.894 421.783L536.559 422.53C539.926 419.538 542.231 414.247 543.629 406.908L542.646 406.721L541.664 406.534C540.292 413.738 538.096 418.488 535.23 421.036L535.894 421.783ZM542.646 406.721L543.621 406.946L614.256 101.553L613.282 101.328L612.307 101.102L541.672 406.496L542.646 406.721ZM613.282 101.328L614.254 101.559C615.129 97.8838 615.58 94.7703 615.58 92.2385C615.58 89.7259 615.137 87.6618 614.095 86.2038L613.282 86.785L612.468 87.3663C613.158 88.332 613.58 89.9036 613.58 92.2385C613.58 94.5542 613.165 97.5 612.309 101.096L613.282 101.328ZM613.282 86.785L614.095 86.2038C613.081 84.7836 611.381 83.6096 609.14 82.6236C606.886 81.6318 603.996 80.7918 600.493 80.0913L600.297 81.0719L600.101 82.0525C603.524 82.737 606.26 83.5417 608.334 84.4542C610.422 85.3726 611.751 86.3627 612.468 87.3663L613.282 86.785ZM600.297 81.0719L600.493 80.0913L590.106 78.0138L589.91 78.9944L589.714 79.975L600.101 82.0525L600.297 81.0719ZM589.91 78.9944L590.134 78.02C587.96 77.5181 586.446 76.8308 585.492 76.0236C584.574 75.2475 584.158 74.3512 584.158 73.2812H583.158H582.158C582.158 74.9813 582.866 76.4222 584.2 77.5504C585.496 78.6476 587.358 79.4319 589.685 79.9688L589.91 78.9944ZM583.158 73.2812H584.158C584.158 71.495 584.804 70.2695 586.05 69.4389C587.367 68.5606 589.47 68.0487 592.507 68.0487V67.0487V66.0487C589.311 66.0487 586.739 66.5756 584.94 67.7748C583.07 69.0217 582.158 70.9124 582.158 73.2812H583.158ZM592.507 67.0487V68.0487H759.746V67.0487V66.0487H592.507V67.0487ZM759.746 67.0487V68.0487C763.965 68.0487 766.632 69.0255 768.08 70.6913C769.511 72.3368 769.992 74.9364 769.156 78.7819L770.133 78.9944L771.111 79.2068C772.006 75.0886 771.621 71.7154 769.59 69.3789C767.576 67.0628 764.183 66.0487 759.746 66.0487V67.0487ZM770.133 78.9944L769.149 78.8165L753.568 165.033L754.552 165.211L755.536 165.389L771.117 79.1722L770.133 78.9944ZM754.552 165.211L753.567 165.037C753.066 167.875 752.169 169.871 750.967 171.148C749.794 172.394 748.252 173.04 746.242 173.04V174.04V175.04C748.734 175.04 750.827 174.215 752.424 172.518C753.992 170.852 754.999 168.433 755.537 165.385L754.552 165.211ZM746.242 174.04V173.04C743.938 173.04 742.546 172.501 741.783 171.674C741.036 170.865 740.675 169.541 740.998 167.44L740.01 167.288L739.021 167.136C738.652 169.537 738.983 171.589 740.313 173.031C741.628 174.454 743.698 175.04 746.242 175.04V174.04ZM740.01 167.288L741.008 167.345L742.047 149.167L741.048 149.11L740.05 149.053L739.011 167.231L740.01 167.288ZM741.048 149.11L742.046 149.183C743.784 125.191 739.984 107.384 730.386 96.0083L729.622 96.6532L728.858 97.298C737.957 108.082 741.775 125.246 740.051 149.038L741.048 149.11ZM729.622 96.6532L730.386 96.0083C720.847 84.7023 708.621 79.0331 693.785 79.0331V80.0331V81.0331C708.034 81.0331 719.7 86.444 728.858 97.298L729.622 96.6532ZM693.785 80.0331V79.0331C678.829 79.0331 667.669 81.4601 660.491 86.4852L661.064 87.3044L661.638 88.1236C668.309 83.4536 678.964 81.0331 693.785 81.0331V80.0331ZM661.064 87.3044L660.491 86.4852C653.324 91.5018 648.537 99.1797 646.069 109.403L647.041 109.638L648.013 109.872C650.393 100.013 654.954 92.802 661.638 88.1236L661.064 87.3044ZM647.041 109.638L646.066 109.415L618.02 231.987L618.995 232.211L619.97 232.434L648.016 109.861L647.041 109.638ZM618.995 232.211L618.017 232.001C617.473 234.541 617.634 236.725 618.858 238.282C620.087 239.846 622.154 240.482 624.708 240.482V239.482V238.482C622.414 238.482 621.105 237.905 620.43 237.046C619.749 236.179 619.478 234.728 619.973 232.42L618.995 232.211ZM624.708 239.482V240.482H643.925V239.482V238.482H624.708V239.482ZM643.925 239.482V240.482C651.563 240.482 658.267 238.39 663.993 234.185C669.709 229.988 674.392 223.728 678.078 215.479L677.165 215.071L676.252 214.663C672.667 222.688 668.174 228.633 662.81 232.573C657.456 236.505 651.175 238.482 643.925 238.482V239.482ZM677.165 215.071L678.07 215.496L690.016 190.047L689.111 189.622L688.205 189.197L676.26 214.646L677.165 215.071ZM689.111 189.622L690.005 190.069C691.02 188.038 692.002 186.586 692.934 185.654L692.227 184.947L691.52 184.24C690.374 185.386 689.278 187.05 688.216 189.174L689.111 189.622ZM692.227 184.947L693.027 185.547C693.838 184.466 695.068 183.87 696.901 183.87V182.87V181.87C694.58 181.87 692.693 182.659 691.427 184.347L692.227 184.947ZM696.901 182.87V183.87C698.247 183.87 699.542 184.525 700.795 186.091L701.576 185.467L702.357 184.842C700.84 182.946 699.018 181.87 696.901 181.87V182.87ZM701.576 185.467L700.869 186.174C701.902 187.207 702.294 188.857 701.644 191.457L702.614 191.699L703.585 191.942C704.32 189.001 704.019 186.496 702.283 184.76L701.576 185.467ZM702.614 191.699L701.641 191.472L674.633 307.293L675.607 307.52L676.581 307.747L703.588 191.926L702.614 191.699ZM675.607 307.52L674.647 307.238C673.805 310.102 672.739 312.144 671.503 313.457C670.294 314.741 668.907 315.35 667.297 315.35V316.35V317.35C669.495 317.35 671.398 316.486 672.959 314.828C674.493 313.198 675.677 310.825 676.566 307.802L675.607 307.52ZM667.297 316.35V315.35C665.395 315.35 664.146 314.838 663.357 313.983C662.554 313.113 662.064 311.713 662.064 309.598H661.064H660.064C660.064 311.983 660.613 313.959 661.888 315.34C663.176 316.736 665.044 317.35 667.297 317.35V316.35ZM661.064 309.598H662.064V284.668H661.064H660.064V309.598H661.064ZM661.064 284.668H662.064C662.064 278.572 661.673 273.481 660.877 269.414C660.084 265.363 658.873 262.233 657.164 260.143L656.39 260.776L655.616 261.409C657.023 263.129 658.149 265.885 658.914 269.798C659.676 273.694 660.064 278.644 660.064 284.668H661.064ZM656.39 260.776L657.164 260.143C653.766 255.99 647.85 254.063 639.77 254.063V255.063V256.063C647.617 256.063 652.781 257.945 655.616 261.409L656.39 260.776ZM639.77 255.063V254.063H621.072V255.063V256.063H639.77V255.063ZM621.072 255.063V254.063C618.323 254.063 616.008 254.706 614.226 256.092C612.438 257.482 611.301 259.532 610.746 262.125L611.723 262.334L612.701 262.544C613.184 260.29 614.125 258.704 615.454 257.67C616.788 256.633 618.627 256.063 621.072 256.063V255.063ZM611.723 262.334L610.75 262.106L577.51 403.896L578.483 404.124L579.457 404.352L612.697 262.563L611.723 262.334ZM578.483 404.124L577.511 403.893C576.634 407.574 576.185 410.772 576.185 413.473C576.185 416.167 576.632 418.432 577.609 420.191L578.483 419.706L579.357 419.22C578.604 417.863 578.185 415.972 578.185 413.473C578.185 410.98 578.601 407.946 579.456 404.356L578.483 404.124ZM578.483 419.706L577.635 420.236C578.645 421.851 580.356 423.128 582.625 424.127C584.899 425.127 587.807 425.881 591.319 426.408L591.468 425.419L591.616 424.43C588.203 423.918 585.485 423.2 583.431 422.296C581.372 421.39 580.053 420.33 579.331 419.176L578.483 419.706ZM591.468 425.419L591.337 426.41L618.864 430.046L618.995 429.054L619.126 428.063L591.599 424.427L591.468 425.419ZM618.995 429.054L618.912 430.051C620.87 430.214 622.18 430.734 622.993 431.479C623.78 432.2 624.227 433.248 624.227 434.767H625.227H626.227C626.227 432.825 625.636 431.189 624.345 430.005C623.081 428.846 621.275 428.241 619.078 428.058L618.995 429.054ZM625.227 434.767H624.227C624.227 436.577 623.606 437.804 622.443 438.625C621.217 439.491 619.254 440 616.398 440V441V442C619.428 442 621.88 441.471 623.597 440.259C625.377 439.002 626.227 437.113 626.227 434.767H625.227ZM616.398 441V440H506.809V441V442H616.398V441ZM743.195 434.248L742.221 434.02L742.22 434.023L743.195 434.248ZM795.652 209.877L794.68 209.641L794.678 209.65L795.652 209.877ZM797.21 171.963L796.763 171.068L796.751 171.074L796.739 171.08L797.21 171.963ZM808.117 155.343L807.142 155.12L807.14 155.13L807.138 155.139L808.117 155.343ZM827.853 102.886L826.987 102.385L826.984 102.392L827.853 102.886ZM860.054 66.0099L859.469 65.1993L859.469 65.1993L860.054 66.0099ZM930.17 61.3356L929.541 62.1128L929.561 62.1291L929.582 62.1443L930.17 61.3356ZM935.364 103.405L934.605 102.754L934.601 102.759L935.364 103.405ZM906.279 103.924L905.385 104.372L905.399 104.4L905.415 104.428L906.279 103.924ZM902.124 89.3819L901.126 89.4443L901.128 89.4752L901.132 89.5059L902.124 89.3819ZM899.008 74.8394L899.931 74.4547L899.931 74.4547L899.008 74.8394ZM865.768 80.5525L864.98 79.9362L864.976 79.9411L865.768 80.5525ZM849.667 124.18L850.642 124.404L850.642 124.4L849.667 124.18ZM839.279 169.366L840.254 169.591L840.254 169.59L839.279 169.366ZM894.333 183.389L893.372 183.114L893.363 183.147L893.356 183.18L894.333 183.389ZM833.047 195.854L832.089 195.567L832.08 195.597L832.073 195.628L833.047 195.854ZM777.474 435.287L778.438 435.55L778.443 435.532L778.448 435.513L777.474 435.287ZM748.388 441V440C746.265 440 745.094 439.466 744.507 438.702C743.912 437.929 743.675 436.612 744.169 434.473L743.195 434.248L742.22 434.023C741.675 436.385 741.785 438.444 742.921 439.922C744.065 441.409 746.011 442 748.388 442V441ZM743.195 434.248L744.168 434.476L796.626 210.105L795.652 209.877L794.678 209.65L742.221 434.02L743.195 434.248ZM795.652 209.877L796.623 210.114C798.202 203.623 798.017 198.475 795.712 194.92C793.37 191.31 789.06 189.66 783.187 189.66V190.66V191.66C788.74 191.66 792.221 193.213 794.034 196.009C795.883 198.86 796.218 203.32 794.68 209.641L795.652 209.877ZM783.187 190.66V189.66H772.28V190.66V191.66H783.187V190.66ZM772.28 190.66V189.66C769.634 189.66 767.836 189.079 766.706 188.09C765.601 187.124 764.97 185.621 764.97 183.389H763.97H762.97C762.97 186.004 763.723 188.138 765.389 189.595C767.029 191.03 769.386 191.66 772.28 191.66V190.66ZM763.97 183.389H764.97C764.97 181.196 765.662 179.704 766.921 178.725C768.228 177.709 770.304 177.118 773.319 177.118V176.118V175.118C770.1 175.118 767.503 175.739 765.693 177.146C763.836 178.591 762.97 180.735 762.97 183.389H763.97ZM773.319 176.118V177.118C784.102 177.118 792.267 175.733 797.68 172.845L797.21 171.963L796.739 171.08C791.766 173.733 784.003 175.118 773.319 175.118V176.118ZM797.21 171.963L797.657 172.857C803.563 169.904 807.327 164.038 809.096 155.547L808.117 155.343L807.138 155.139C805.444 163.267 801.937 168.481 796.763 171.068L797.21 171.963ZM808.117 155.343L809.092 155.565C813.575 135.91 820.121 118.518 828.723 103.38L827.853 102.886L826.984 102.392C818.272 117.724 811.662 135.303 807.142 155.12L808.117 155.343ZM827.853 102.886L828.719 103.386C837.663 87.9062 848.307 75.7277 860.64 66.8206L860.054 66.0099L859.469 65.1993C846.872 74.2972 836.048 86.7026 826.987 102.385L827.853 102.886ZM860.054 66.0099L860.64 66.8206C872.941 57.9369 886.414 53.5062 901.085 53.5062V52.5062V51.5062C885.979 51.5062 872.099 56.078 859.469 65.1993L860.054 66.0099ZM901.085 52.5062V53.5062C913.044 53.5062 922.495 56.4086 929.541 62.1128L930.17 61.3356L930.8 60.5583C923.303 54.49 913.365 51.5062 901.085 51.5062V52.5062ZM930.17 61.3356L929.582 62.1443C936.922 67.482 940.597 74.9614 940.597 84.7075H941.597H942.597C942.597 74.371 938.654 66.2691 930.759 60.5268L930.17 61.3356ZM941.597 84.7075H940.597C940.597 92.1347 938.576 98.1216 934.605 102.754L935.364 103.405L936.123 104.056C940.463 98.9935 942.597 92.5154 942.597 84.7075H941.597ZM935.364 103.405L934.601 102.759C930.982 107.036 926.413 109.157 920.822 109.157V110.157V111.157C927.003 111.157 932.129 108.776 936.128 104.051L935.364 103.405ZM920.822 110.157V109.157C913.709 109.157 909.306 107.13 907.143 103.421L906.279 103.924L905.415 104.428C908.099 109.029 913.391 111.157 920.822 111.157V110.157ZM906.279 103.924L907.173 103.477C905.156 99.4418 903.797 94.7074 903.116 89.2579L902.124 89.3819L901.132 89.5059C901.836 95.1364 903.247 100.097 905.385 104.372L906.279 103.924ZM902.124 89.3819L903.122 89.3195C902.77 83.6935 901.713 78.733 899.931 74.4547L899.008 74.8394L898.085 75.224C899.765 79.2558 900.785 83.9902 901.126 89.4443L902.124 89.3819ZM899.008 74.8394L899.931 74.4547C897.984 69.7817 893.513 67.6069 887.062 67.6069V68.6069V69.6069C893.076 69.6069 896.569 71.587 898.085 75.224L899.008 74.8394ZM887.062 68.6069V67.6069C878.71 67.6069 871.346 71.8018 864.98 79.9362L865.768 80.5525L866.555 81.1688C872.654 73.3757 879.487 69.6069 887.062 69.6069V68.6069ZM865.768 80.5525L864.976 79.9411C858.943 87.7491 853.54 102.488 848.692 123.96L849.667 124.18L850.642 124.4C855.489 102.938 860.82 88.591 866.559 81.164L865.768 80.5525ZM849.667 124.18L848.692 123.956L838.305 169.142L839.279 169.366L840.254 169.59L850.642 124.404L849.667 124.18ZM839.279 169.366L838.305 169.141C837.756 171.522 837.915 173.598 839.165 175.076C840.401 176.536 842.46 177.118 844.993 177.118V176.118V175.118C842.678 175.118 841.361 174.574 840.692 173.784C840.038 173.011 839.764 171.712 840.254 169.591L839.279 169.366ZM844.993 176.118V177.118H886.543V176.118V175.118H844.993V176.118ZM886.543 176.118V177.118C889.771 177.118 891.733 177.725 892.742 178.667C893.656 179.52 894.01 180.88 893.372 183.114L894.333 183.389L895.295 183.664C896.041 181.051 895.79 178.775 894.107 177.205C892.519 175.723 889.893 175.118 886.543 175.118V176.118ZM894.333 183.389L893.356 183.18C892.873 185.434 891.932 187.02 890.603 188.053C889.269 189.091 887.429 189.66 884.985 189.66V190.66V191.66C887.734 191.66 890.049 191.018 891.831 189.632C893.619 188.242 894.755 186.192 895.311 183.599L894.333 183.389ZM884.985 190.66V189.66H839.799V190.66V191.66H884.985V190.66ZM839.799 190.66V189.66C837.897 189.66 836.24 190.139 834.904 191.166C833.572 192.191 832.652 193.69 832.089 195.567L833.047 195.854L834.005 196.141C834.48 194.556 835.205 193.458 836.124 192.751C837.039 192.048 838.238 191.66 839.799 191.66V190.66ZM833.047 195.854L832.073 195.628L776.499 435.061L777.474 435.287L778.448 435.513L834.021 196.08L833.047 195.854ZM777.474 435.287L776.509 435.024C776.03 436.779 775.26 437.999 774.259 438.785C773.261 439.569 771.937 440 770.202 440V441V442C772.277 442 774.068 441.479 775.495 440.358C776.917 439.24 777.878 437.603 778.438 435.55L777.474 435.287ZM770.202 441V440H748.388V441V442H770.202V441Z" fill="#FF8282" mask="url(#path-5-outside-1_103_89)"/>
<mask id="path-7-outside-2_103_89" maskUnits="userSpaceOnUse" x="3" y="38" width="981" height="503" fill="black">
<rect fill="white" x="3" y="38" width="981" height="503"/>
<path d="M9.72113 418.147H40.3644L206.046 56.6612H226.821L238.766 418.147H267.851L263.177 441H150.992L155.666 418.147H201.891L197.216 302.846H116.713L63.7363 418.147H97.4958L92.8214 441H5.04674L9.72113 418.147ZM125.542 281.032H197.216L192.542 134.048L125.542 281.032ZM325.518 446.194C297.991 446.194 276.697 421.264 279.294 366.21C282.93 292.458 338.503 155.343 423.161 155.343C440.301 155.343 453.285 161.056 457.96 165.73L482.89 155.343H495.355L443.936 397.372C442.378 405.163 439.262 419.186 452.246 419.186C461.076 419.186 469.905 404.124 485.486 383.869L500.029 365.171L513.533 373.481L501.068 390.62C478.735 421.264 461.595 446.194 435.626 446.194C417.448 446.194 398.751 433.209 412.254 390.62L446.533 281.551H438.743L429.394 309.598C408.619 372.442 373.301 446.194 325.518 446.194ZM336.945 419.706C384.208 419.706 431.991 258.699 446.014 193.257C440.82 184.428 431.991 178.195 412.774 178.195C388.363 178.195 360.836 199.49 348.89 243.117L314.612 366.21C305.263 398.93 315.131 419.706 336.945 419.706ZM506.217 418.147H547.767L619.96 79.5137H578.41L583.085 56.6612H780.967L757.595 167.808H737.859L747.208 112.234C751.363 87.3044 735.781 80.0331 710.851 80.0331H655.797L626.193 219.745H675.534L689.038 156.382H709.813L678.131 305.962H657.356L670.859 242.598H621.519L584.123 418.147H670.34L665.666 441H501.543L506.217 418.147ZM706.149 539.682C676.025 539.682 646.42 516.829 646.42 491.899C646.42 477.876 656.808 466.969 671.35 468.008C701.994 470.604 687.97 519.426 712.381 519.426C752.892 519.426 762.241 457.101 770.551 418.667L820.411 182.35H775.226L778.861 165.73L825.086 160.017C839.628 92.4982 863 36.9248 934.155 39.5217C965.318 40.5605 984.535 59.2581 982.457 83.1494C980.899 102.886 968.434 114.312 953.891 114.312C936.752 114.312 934.674 100.289 938.829 86.2657C944.543 67.5681 932.597 56.1418 915.457 59.2581C871.31 67.5681 868.194 122.103 859.884 160.537H932.597L927.403 182.35H855.21L805.35 418.667C790.807 486.705 760.164 539.682 706.149 539.682Z"/>
</mask>
<path d="M9.72113 418.147V417.147H8.90497L8.74142 417.947L9.72113 418.147ZM40.3644 418.147V419.147H41.0061L41.2734 418.564L40.3644 418.147ZM206.046 56.6612V55.6612H205.404L205.136 56.2445L206.046 56.6612ZM226.821 56.6612L227.82 56.6282L227.788 55.6612H226.821V56.6612ZM238.766 418.147L237.767 418.18L237.799 419.147H238.766V418.147ZM267.851 418.147L268.831 418.348L269.077 417.147H267.851V418.147ZM263.177 441V442H263.993L264.157 441.2L263.177 441ZM150.992 441L150.012 440.8L149.766 442H150.992V441ZM155.666 418.147V417.147H154.85L154.686 417.947L155.666 418.147ZM201.891 418.147V419.147H202.932L202.89 418.107L201.891 418.147ZM197.216 302.846L198.215 302.805L198.176 301.846H197.216V302.846ZM116.713 302.846V301.846H116.072L115.804 302.428L116.713 302.846ZM63.7363 418.147L62.8276 417.73L62.1764 419.147H63.7363V418.147ZM97.4958 418.147L98.4755 418.348L98.7211 417.147H97.4958V418.147ZM92.8214 441V442H93.6376L93.8011 441.2L92.8214 441ZM5.04674 441L4.06703 440.8L3.82149 442H5.04674V441ZM125.542 281.032L124.632 280.617L123.987 282.032H125.542V281.032ZM197.216 281.032V282.032H198.248L198.216 281L197.216 281.032ZM192.542 134.048L193.541 134.017L191.632 133.634L192.542 134.048ZM9.72113 418.147V419.147H40.3644V418.147V417.147H9.72113V418.147ZM40.3644 418.147L41.2734 418.564L206.955 57.0778L206.046 56.6612L205.136 56.2445L39.4553 417.731L40.3644 418.147ZM206.046 56.6612V57.6612H226.821V56.6612V55.6612H206.046V56.6612ZM226.821 56.6612L225.821 56.6942L237.767 418.18L238.766 418.147L239.766 418.114L227.82 56.6282L226.821 56.6612ZM238.766 418.147V419.147H267.851V418.147V417.147H238.766V418.147ZM267.851 418.147L266.872 417.947L262.197 440.8L263.177 441L264.157 441.2L268.831 418.348L267.851 418.147ZM263.177 441V440H150.992V441V442H263.177V441ZM150.992 441L151.971 441.2L156.646 418.348L155.666 418.147L154.686 417.947L150.012 440.8L150.992 441ZM155.666 418.147V419.147H201.891V418.147V417.147H155.666V418.147ZM201.891 418.147L202.89 418.107L198.215 302.805L197.216 302.846L196.217 302.886L200.891 418.188L201.891 418.147ZM197.216 302.846V301.846H116.713V302.846V303.846H197.216V302.846ZM116.713 302.846L115.804 302.428L62.8276 417.73L63.7363 418.147L64.645 418.565L117.621 303.263L116.713 302.846ZM63.7363 418.147V419.147H97.4958V418.147V417.147H63.7363V418.147ZM97.4958 418.147L96.5161 417.947L91.8417 440.8L92.8214 441L93.8011 441.2L98.4755 418.348L97.4958 418.147ZM92.8214 441V440H5.04674V441V442H92.8214V441ZM5.04674 441L6.02646 441.2L10.7008 418.348L9.72113 418.147L8.74142 417.947L4.06703 440.8L5.04674 441ZM125.542 281.032V282.032H197.216V281.032V280.032H125.542V281.032ZM197.216 281.032L198.216 281L193.541 134.017L192.542 134.048L191.542 134.08L196.217 281.064L197.216 281.032ZM192.542 134.048L191.632 133.634L124.632 280.617L125.542 281.032L126.452 281.447L193.452 134.463L192.542 134.048ZM279.294 366.21L278.295 366.161L278.295 366.163L279.294 366.21ZM457.96 165.73L457.252 166.437L457.726 166.911L458.344 166.653L457.96 165.73ZM482.89 155.343V154.343H482.69L482.505 154.42L482.89 155.343ZM495.355 155.343L496.333 155.551L496.589 154.343H495.355V155.343ZM443.936 397.372L442.958 397.165L442.956 397.176L443.936 397.372ZM485.486 383.869L484.697 383.255L484.694 383.259L485.486 383.869ZM500.029 365.171L500.553 364.319L499.79 363.85L499.24 364.557L500.029 365.171ZM513.533 373.481L514.342 374.069L514.977 373.196L514.057 372.629L513.533 373.481ZM501.068 390.62L501.876 391.209L501.877 391.209L501.068 390.62ZM412.254 390.62L413.208 390.923L413.208 390.92L412.254 390.62ZM446.533 281.551L447.487 281.851L447.896 280.551H446.533V281.551ZM438.743 281.551V280.551H438.022L437.794 281.235L438.743 281.551ZM429.394 309.598L428.445 309.281L428.444 309.284L429.394 309.598ZM446.014 193.257L446.992 193.467L447.073 193.086L446.876 192.75L446.014 193.257ZM348.89 243.117L349.854 243.386L349.855 243.382L348.89 243.117ZM314.612 366.21L315.573 366.484L315.575 366.478L314.612 366.21ZM325.518 446.194V445.194C312.099 445.194 300.208 439.137 291.951 426.306C283.665 413.431 279 393.669 280.293 366.257L279.294 366.21L278.295 366.163C276.991 393.805 281.675 414.034 290.269 427.388C298.891 440.785 311.411 447.194 325.518 447.194V446.194ZM279.294 366.21L280.293 366.259C282.102 329.554 296.853 276.989 321.712 233.617C346.602 190.189 381.401 156.343 423.161 156.343V155.343V154.343C380.263 154.343 344.947 189.054 319.976 232.622C294.975 276.245 280.121 329.114 278.295 366.161L279.294 366.21ZM423.161 155.343V156.343C431.622 156.343 439.045 157.753 444.915 159.731C450.81 161.717 455.065 164.25 457.252 166.437L457.96 165.73L458.667 165.023C456.179 162.536 451.606 159.875 445.554 157.836C439.479 155.789 431.84 154.343 423.161 154.343V155.343ZM457.96 165.73L458.344 166.653L483.274 156.266L482.89 155.343L482.505 154.42L457.575 164.807L457.96 165.73ZM482.89 155.343V156.343H495.355V155.343V154.343H482.89V155.343ZM495.355 155.343L494.376 155.135L442.958 397.165L443.936 397.372L444.915 397.58L496.333 155.551L495.355 155.343ZM443.936 397.372L442.956 397.176C442.189 401.011 440.969 406.657 441.648 411.344C441.992 413.714 442.833 415.953 444.562 417.598C446.304 419.256 448.816 420.186 452.246 420.186V419.186V418.186C449.184 418.186 447.217 417.364 445.94 416.149C444.65 414.921 443.933 413.167 443.628 411.057C443.008 406.786 444.126 401.524 444.917 397.568L443.936 397.372ZM452.246 419.186V420.186C454.75 420.186 457.165 419.117 459.573 417.317C461.979 415.519 464.456 412.933 467.102 409.764C472.371 403.455 478.541 394.538 486.279 384.478L485.486 383.869L484.694 383.259C476.851 393.454 470.815 402.197 465.567 408.482C462.954 411.611 460.595 414.056 458.375 415.715C456.157 417.373 454.158 418.186 452.246 418.186V419.186ZM485.486 383.869L486.276 384.482L500.818 365.785L500.029 365.171L499.24 364.557L484.697 383.255L485.486 383.869ZM500.029 365.171L499.505 366.023L513.009 374.333L513.533 373.481L514.057 372.629L500.553 364.319L500.029 365.171ZM513.533 373.481L512.724 372.893L500.259 390.032L501.068 390.62L501.877 391.209L514.342 374.069L513.533 373.481ZM501.068 390.62L500.26 390.031C489.069 405.386 479.259 419.193 469.012 429.182C458.787 439.15 448.247 445.194 435.626 445.194V446.194V447.194C448.974 447.194 459.988 440.772 470.408 430.614C480.807 420.478 490.733 406.499 501.876 391.209L501.068 390.62ZM435.626 446.194V445.194C426.755 445.194 417.93 442.032 412.912 433.855C407.875 425.646 406.493 412.1 413.208 390.923L412.254 390.62L411.301 390.318C404.512 411.73 405.727 425.97 411.207 434.901C416.707 443.863 426.32 447.194 435.626 447.194V446.194ZM412.254 390.62L413.208 390.92L447.487 281.851L446.533 281.551L445.579 281.251L411.3 390.321L412.254 390.62ZM446.533 281.551V280.551H438.743V281.551V282.551H446.533V281.551ZM438.743 281.551L437.794 281.235L428.445 309.281L429.394 309.598L430.342 309.914L439.691 281.868L438.743 281.551ZM429.394 309.598L428.444 309.284C418.068 340.672 404.078 374.725 386.75 400.911C369.385 427.153 348.871 445.194 325.518 445.194V446.194V447.194C349.949 447.194 370.985 428.359 388.418 402.014C405.888 375.613 419.945 341.368 430.343 309.912L429.394 309.598ZM336.945 419.706V420.706C343.146 420.706 349.273 418.064 355.238 413.45C361.202 408.837 367.067 402.205 372.772 394.101C384.181 377.893 395.057 355.641 404.871 331.397C424.504 282.9 439.971 226.23 446.992 193.467L446.014 193.257L445.036 193.048C438.034 225.726 422.597 282.28 403.017 330.647C393.225 354.835 382.417 376.925 371.136 392.95C365.496 400.963 359.764 407.421 354.014 411.868C348.265 416.315 342.559 418.706 336.945 418.706V419.706ZM446.014 193.257L446.876 192.75C444.198 188.199 440.561 184.285 435.104 181.523C429.664 178.769 422.485 177.195 412.774 177.195V178.195V179.195C422.28 179.195 429.124 180.738 434.201 183.307C439.262 185.869 442.635 189.486 445.152 193.764L446.014 193.257ZM412.774 178.195V177.195C387.75 177.195 359.941 198.971 347.926 242.853L348.89 243.117L349.855 243.382C361.731 200.008 388.976 179.195 412.774 179.195V178.195ZM348.89 243.117L347.927 242.849L313.648 365.941L314.612 366.21L315.575 366.478L349.854 243.386L348.89 243.117ZM314.612 366.21L313.65 365.935C308.943 382.409 309.021 396.045 313.175 405.626C317.366 415.293 325.659 420.706 336.945 420.706V419.706V418.706C326.417 418.706 318.869 413.731 315.01 404.83C311.113 395.844 310.931 382.731 315.573 366.484L314.612 366.21ZM506.217 418.147V417.147H505.401L505.237 417.947L506.217 418.147ZM547.767 418.147V419.147H548.576L548.745 418.356L547.767 418.147ZM619.96 79.5137L620.938 79.7223L621.196 78.5137H619.96V79.5137ZM578.41 79.5137L577.431 79.3134L577.185 80.5137H578.41V79.5137ZM583.085 56.6612V55.6612H582.269L582.105 56.4608L583.085 56.6612ZM780.967 56.6612L781.946 56.867L782.199 55.6612H780.967V56.6612ZM757.595 167.808V168.808H758.407L758.574 168.014L757.595 167.808ZM737.859 167.808L736.873 167.642L736.677 168.808H737.859V167.808ZM747.208 112.234L748.194 112.4L748.194 112.399L747.208 112.234ZM655.797 80.0331V79.0331H654.987L654.819 79.8258L655.797 80.0331ZM626.193 219.745L625.215 219.538L624.959 220.745H626.193V219.745ZM675.534 219.745V220.745H676.343L676.512 219.954L675.534 219.745ZM689.038 156.382V155.382H688.228L688.06 156.173L689.038 156.382ZM709.813 156.382L710.791 156.589L711.047 155.382H709.813V156.382ZM678.131 305.962V306.962H678.941L679.109 306.169L678.131 305.962ZM657.356 305.962L656.378 305.754L656.12 306.962H657.356V305.962ZM670.859 242.598L671.837 242.806L672.095 241.598H670.859V242.598ZM621.519 242.598V241.598H620.709L620.541 242.39L621.519 242.598ZM584.123 418.147L583.145 417.939L582.888 419.147H584.123V418.147ZM670.34 418.147L671.32 418.348L671.565 417.147H670.34V418.147ZM665.666 441V442H666.482L666.645 441.2L665.666 441ZM501.543 441L500.563 440.8L500.317 442H501.543V441ZM506.217 418.147V419.147H547.767V418.147V417.147H506.217V418.147ZM547.767 418.147L548.745 418.356L620.938 79.7223L619.96 79.5137L618.982 79.3052L546.789 417.939L547.767 418.147ZM619.96 79.5137V78.5137H578.41V79.5137V80.5137H619.96V79.5137ZM578.41 79.5137L579.39 79.7141L584.064 56.8616L583.085 56.6612L582.105 56.4608L577.431 79.3134L578.41 79.5137ZM583.085 56.6612V57.6612H780.967V56.6612V55.6612H583.085V56.6612ZM780.967 56.6612L779.989 56.4554L756.617 167.602L757.595 167.808L758.574 168.014L781.946 56.867L780.967 56.6612ZM757.595 167.808V166.808H737.859V167.808V168.808H757.595V167.808ZM737.859 167.808L738.845 167.974L748.194 112.4L747.208 112.234L746.222 112.069L736.873 167.642L737.859 167.808ZM747.208 112.234L748.194 112.399C750.31 99.7061 747.426 91.2213 740.542 85.9889C733.773 80.8445 723.356 79.0331 710.851 79.0331V80.0331V81.0331C723.277 81.0331 733.116 82.8574 739.331 87.5812C745.431 92.2169 748.261 99.8328 746.221 112.07L747.208 112.234ZM710.851 80.0331V79.0331H655.797V80.0331V81.0331H710.851V80.0331ZM655.797 80.0331L654.819 79.8258L625.215 219.538L626.193 219.745L627.171 219.953L656.776 80.2404L655.797 80.0331ZM626.193 219.745V220.745H675.534V219.745V218.745H626.193V219.745ZM675.534 219.745L676.512 219.954L690.016 156.59L689.038 156.382L688.06 156.173L674.556 219.537L675.534 219.745ZM689.038 156.382V157.382H709.813V156.382V155.382H689.038V156.382ZM709.813 156.382L708.834 156.174L677.152 305.755L678.131 305.962L679.109 306.169L710.791 156.589L709.813 156.382ZM678.131 305.962V304.962H657.356V305.962V306.962H678.131V305.962ZM657.356 305.962L658.334 306.17L671.837 242.806L670.859 242.598L669.881 242.39L656.378 305.754L657.356 305.962ZM670.859 242.598V241.598H621.519V242.598V243.598H670.859V242.598ZM621.519 242.598L620.541 242.39L583.145 417.939L584.123 418.147L585.102 418.356L622.497 242.806L621.519 242.598ZM584.123 418.147V419.147H670.34V418.147V417.147H584.123V418.147ZM670.34 418.147L669.36 417.947L664.686 440.8L665.666 441L666.645 441.2L671.32 418.348L670.34 418.147ZM665.666 441V440H501.543V441V442H665.666V441ZM501.543 441L502.522 441.2L507.197 418.348L506.217 418.147L505.237 417.947L500.563 440.8L501.543 441ZM671.35 468.008L671.435 467.011L671.422 467.01L671.35 468.008ZM770.551 418.667L771.529 418.878L771.53 418.873L770.551 418.667ZM820.411 182.35L821.39 182.557L821.644 181.35H820.411V182.35ZM775.226 182.35L774.249 182.137L773.983 183.35H775.226V182.35ZM778.861 165.73L778.739 164.738L778.036 164.825L777.884 165.517L778.861 165.73ZM825.086 160.017L825.209 161.01L825.914 160.922L826.063 160.228L825.086 160.017ZM934.155 39.5217L934.119 40.5211L934.122 40.5212L934.155 39.5217ZM982.457 83.1494L981.461 83.0628L981.46 83.0707L982.457 83.1494ZM938.829 86.2657L937.873 85.9734L937.871 85.9816L938.829 86.2657ZM915.457 59.2581L915.279 58.2742L915.272 58.2753L915.457 59.2581ZM859.884 160.537L858.907 160.325L858.645 161.537H859.884V160.537ZM932.597 160.537L933.57 160.768L933.863 159.537H932.597V160.537ZM927.403 182.35V183.35H928.193L928.376 182.582L927.403 182.35ZM855.21 182.35V181.35H854.399L854.231 182.144L855.21 182.35ZM805.35 418.667L806.327 418.876L806.328 418.873L805.35 418.667ZM706.149 539.682V538.682C691.328 538.682 676.612 533.055 665.608 524.355C654.593 515.645 647.42 503.961 647.42 491.899H646.42H645.42C645.42 504.767 653.049 516.974 664.368 525.923C675.697 534.882 690.845 540.682 706.149 540.682V539.682ZM646.42 491.899H647.42C647.42 478.4 657.37 468.012 671.279 469.005L671.35 468.008L671.422 467.01C656.246 465.926 645.42 477.351 645.42 491.899H646.42ZM671.35 468.008L671.266 469.004C678.599 469.625 683.208 472.983 686.431 477.701C689.698 482.484 691.545 488.67 693.237 494.951C694.907 501.149 696.435 507.492 699.109 512.247C700.459 514.648 702.131 516.703 704.312 518.155C706.504 519.615 709.152 520.426 712.381 520.426V519.426V518.426C709.507 518.426 707.253 517.711 705.421 516.491C703.577 515.263 702.1 513.484 700.853 511.267C698.333 506.787 696.874 500.762 695.168 494.43C693.485 488.181 691.567 481.675 688.082 476.573C684.553 471.407 679.423 467.688 671.435 467.011L671.35 468.008ZM712.381 519.426V520.426C733.286 520.426 745.993 504.306 754.466 483.842C762.95 463.348 767.388 438.029 771.529 418.878L770.551 418.667L769.574 418.455C765.405 437.739 761.013 462.799 752.618 483.077C744.211 503.383 731.988 518.426 712.381 518.426V519.426ZM770.551 418.667L771.53 418.873L821.39 182.557L820.411 182.35L819.433 182.144L769.573 418.46L770.551 418.667ZM820.411 182.35V181.35H775.226V182.35V183.35H820.411V182.35ZM775.226 182.35L776.203 182.564L779.838 165.944L778.861 165.73L777.884 165.517L774.249 182.137L775.226 182.35ZM778.861 165.73L778.984 166.723L825.209 161.01L825.086 160.017L824.963 159.025L778.739 164.738L778.861 165.73ZM825.086 160.017L826.063 160.228C833.331 126.486 842.775 95.8995 859.19 74.0771C875.547 52.3316 898.866 39.2345 934.119 40.5211L934.155 39.5217L934.191 38.5224C898.289 37.2121 874.345 50.6032 857.592 72.8749C840.897 95.0697 831.383 126.029 824.108 159.807L825.086 160.017ZM934.155 39.5217L934.122 40.5212C949.516 41.0343 961.865 45.9054 970.093 53.5007C978.307 61.0833 982.473 71.4281 981.461 83.0628L982.457 83.1494L983.453 83.236C984.519 70.9793 980.115 60.0297 971.449 52.031C962.798 44.045 949.956 39.0479 934.188 38.5223L934.155 39.5217ZM982.457 83.1494L981.46 83.0707C979.935 102.395 967.81 113.312 953.891 113.312V114.312V115.312C969.058 115.312 981.863 103.376 983.454 83.2281L982.457 83.1494ZM953.891 114.312V113.312C949.74 113.312 946.587 112.463 944.24 111.046C941.902 109.634 940.299 107.62 939.301 105.17C937.285 100.221 937.736 93.4749 939.788 86.5497L938.829 86.2657L937.871 85.9816C935.767 93.0796 935.18 100.357 937.449 105.925C938.593 108.734 940.464 111.102 943.206 112.758C945.939 114.408 949.473 115.312 953.891 115.312V114.312ZM938.829 86.2657L939.786 86.5579C942.715 76.9703 941.167 69.0393 936.449 63.905C931.743 58.7834 924.089 56.6723 915.279 58.2742L915.457 59.2581L915.636 60.2419C923.965 58.7276 930.854 60.7715 934.977 65.2583C939.088 69.7325 940.657 76.8635 937.873 85.9734L938.829 86.2657ZM915.457 59.2581L915.272 58.2753C892.712 62.522 880.693 78.6102 873.296 98.2484C865.926 117.815 863.033 141.242 858.907 160.325L859.884 160.537L860.862 160.748C865.045 141.398 867.866 118.339 875.168 98.9533C882.443 79.6382 894.056 64.3042 915.642 60.2408L915.457 59.2581ZM859.884 160.537V161.537H932.597V160.537V159.537H859.884V160.537ZM932.597 160.537L931.624 160.305L926.43 182.119L927.403 182.35L928.376 182.582L933.57 160.768L932.597 160.537ZM927.403 182.35V181.35H855.21V182.35V183.35H927.403V182.35ZM855.21 182.35L854.231 182.144L804.371 418.46L805.35 418.667L806.328 418.873L856.188 182.557L855.21 182.35ZM805.35 418.667L804.372 418.458C797.115 452.408 785.859 482.504 769.75 504.09C753.663 525.647 732.772 538.682 706.149 538.682V539.682V540.682C733.541 540.682 754.979 527.228 771.353 505.287C787.705 483.375 799.041 452.964 806.327 418.876L805.35 418.667Z" fill="black" mask="url(#path-7-outside-2_103_89)"/>
<rect x="5.5" y="507.5" width="26" height="12" stroke="black"/>
<path d="M43.321 519V508.091H47.1349C47.8949 508.091 48.5217 508.222 49.0153 508.485C49.5089 508.744 49.8764 509.094 50.1179 509.534C50.3594 509.971 50.4801 510.456 50.4801 510.989C50.4801 511.457 50.3967 511.844 50.2298 512.15C50.0664 512.455 49.8498 512.697 49.5799 512.874C49.3136 513.052 49.0241 513.183 48.7116 513.268V513.375C49.0455 513.396 49.381 513.513 49.7184 513.727C50.0558 513.94 50.3381 514.245 50.5653 514.643C50.7926 515.04 50.9062 515.527 50.9062 516.102C50.9062 516.649 50.782 517.141 50.5334 517.578C50.2848 518.015 49.8924 518.361 49.3562 518.616C48.82 518.872 48.1222 519 47.2628 519H43.321ZM44.642 517.828H47.2628C48.1257 517.828 48.7383 517.661 49.1005 517.327C49.4663 516.99 49.6491 516.582 49.6491 516.102C49.6491 515.733 49.555 515.392 49.3668 515.08C49.1786 514.763 48.9105 514.511 48.5625 514.323C48.2145 514.131 47.8026 514.036 47.3267 514.036H44.642V517.828ZM44.642 512.885H47.0923C47.4901 512.885 47.8487 512.807 48.1683 512.651C48.4915 512.494 48.7472 512.274 48.9354 511.99C49.1271 511.706 49.223 511.372 49.223 510.989C49.223 510.509 49.0561 510.103 48.7223 509.769C48.3885 509.431 47.8594 509.263 47.1349 509.263H44.642V512.885ZM58.0627 515.655V510.818H59.3198V519H58.0627V517.615H57.9775C57.7857 518.031 57.4874 518.384 57.0826 518.675C56.6777 518.963 56.1664 519.107 55.5485 519.107C55.0371 519.107 54.5826 518.995 54.1848 518.771C53.7871 518.544 53.4746 518.203 53.2473 517.748C53.0201 517.29 52.9064 516.713 52.9064 516.017V510.818H54.1635V515.932C54.1635 516.528 54.3304 517.004 54.6642 517.359C55.0016 517.714 55.4313 517.892 55.9533 517.892C56.2658 517.892 56.5836 517.812 56.9068 517.652C57.2335 517.493 57.5069 517.248 57.7271 516.917C57.9508 516.587 58.0627 516.166 58.0627 515.655ZM65.1805 510.818V511.884H60.9404V510.818H65.1805ZM62.1762 508.858H63.4333V516.656C63.4333 517.011 63.4848 517.278 63.5878 517.455C63.6943 517.629 63.8293 517.746 63.9926 517.807C64.1595 517.864 64.3353 517.892 64.52 517.892C64.6585 517.892 64.7721 517.885 64.8609 517.871C64.9497 517.853 65.0207 517.839 65.074 517.828L65.3296 518.957C65.2444 518.989 65.1254 519.021 64.9727 519.053C64.82 519.089 64.6265 519.107 64.3921 519.107C64.037 519.107 63.689 519.03 63.3481 518.877C63.0107 518.725 62.7302 518.492 62.5065 518.18C62.2863 517.867 62.1762 517.473 62.1762 516.997V508.858ZM71.4607 519V508.091H72.7817V512.949H78.5985V508.091H79.9195V519H78.5985V514.121H72.7817V519H71.4607ZM85.8241 519.17C85.0358 519.17 84.3557 518.996 83.784 518.648C83.2158 518.297 82.7773 517.807 82.4683 517.178C82.1629 516.546 82.0102 515.811 82.0102 514.973C82.0102 514.135 82.1629 513.396 82.4683 512.757C82.7773 512.114 83.2069 511.614 83.7574 511.255C84.3113 510.893 84.9577 510.712 85.6963 510.712C86.1224 510.712 86.5432 510.783 86.9587 510.925C87.3742 511.067 87.7524 511.298 88.0933 511.617C88.4342 511.933 88.7059 512.352 88.9083 512.874C89.1107 513.396 89.2119 514.039 89.2119 514.803V515.335H82.9051V514.249H87.9335C87.9335 513.787 87.8412 513.375 87.6565 513.013C87.4754 512.651 87.2162 512.365 86.8788 512.155C86.545 511.946 86.1508 511.841 85.6963 511.841C85.1956 511.841 84.7623 511.965 84.3966 512.214C84.0344 512.459 83.7556 512.778 83.5603 513.173C83.365 513.567 83.2673 513.989 83.2673 514.44V515.165C83.2673 515.783 83.3738 516.306 83.5869 516.736C83.8035 517.162 84.1036 517.487 84.4871 517.711C84.8707 517.931 85.3163 518.041 85.8241 518.041C86.1544 518.041 86.4527 517.995 86.719 517.903C86.9889 517.807 87.2215 517.665 87.4168 517.477C87.6121 517.285 87.7631 517.047 87.8696 516.763L89.0841 517.104C88.9562 517.516 88.7414 517.878 88.4395 518.19C88.1377 518.499 87.7648 518.741 87.3209 518.915C86.877 519.085 86.3781 519.17 85.8241 519.17ZM93.5319 519.192C93.0134 519.192 92.5429 519.094 92.1203 518.899C91.6977 518.7 91.3621 518.414 91.1135 518.041C90.865 517.665 90.7407 517.21 90.7407 516.678C90.7407 516.209 90.833 515.829 91.0177 515.538C91.2023 515.243 91.4491 515.012 91.7581 514.845C92.067 514.678 92.4079 514.554 92.7808 514.472C93.1572 514.387 93.5354 514.32 93.9154 514.27C94.4126 514.206 94.8156 514.158 95.1246 514.126C95.4371 514.091 95.6643 514.032 95.8064 513.95C95.952 513.869 96.0248 513.727 96.0248 513.524V513.482C96.0248 512.956 95.8809 512.548 95.5933 512.256C95.3092 511.965 94.8778 511.82 94.2989 511.82C93.6988 511.82 93.2282 511.951 92.8873 512.214C92.5464 512.477 92.3067 512.757 92.1682 513.055L90.9751 512.629C91.1881 512.132 91.4722 511.745 91.8273 511.468C92.186 511.187 92.5766 510.992 92.9992 510.882C93.4253 510.768 93.8444 510.712 94.2563 510.712C94.5191 510.712 94.8209 510.744 95.1618 510.808C95.5063 510.868 95.8383 510.994 96.1579 511.186C96.4811 511.377 96.7492 511.667 96.9623 512.054C97.1753 512.441 97.2819 512.96 97.2819 513.609V519H96.0248V517.892H95.9608C95.8756 518.07 95.7336 518.26 95.5347 518.462C95.3358 518.664 95.0713 518.837 94.741 518.979C94.4108 519.121 94.0077 519.192 93.5319 519.192ZM93.7236 518.062C94.2208 518.062 94.6398 517.965 94.9807 517.77C95.3252 517.574 95.5844 517.322 95.7584 517.013C95.936 516.704 96.0248 516.379 96.0248 516.038V514.888C95.9715 514.952 95.8543 515.01 95.6732 515.064C95.4956 515.113 95.2897 515.158 95.0553 515.197C94.8245 515.232 94.599 515.264 94.3788 515.293C94.1622 515.317 93.9864 515.339 93.8515 515.357C93.5248 515.399 93.2194 515.468 92.9353 515.564C92.6547 515.657 92.4275 515.797 92.2535 515.985C92.083 516.17 91.9978 516.422 91.9978 516.741C91.9978 517.178 92.1594 517.509 92.4825 517.732C92.8092 517.952 93.2229 518.062 93.7236 518.062ZM102.666 519.17C101.984 519.17 101.382 518.998 100.86 518.654C100.338 518.306 99.9297 517.816 99.6349 517.184C99.3402 516.548 99.1928 515.797 99.1928 514.93C99.1928 514.071 99.3402 513.325 99.6349 512.693C99.9297 512.061 100.34 511.573 100.865 511.228C101.391 510.884 101.998 510.712 102.687 510.712C103.22 510.712 103.641 510.8 103.95 510.978C104.262 511.152 104.5 511.351 104.663 511.575C104.83 511.795 104.96 511.976 105.052 512.118H105.159V508.091H106.416V519H105.201V517.743H105.052C104.96 517.892 104.828 518.08 104.658 518.308C104.488 518.531 104.244 518.732 103.928 518.909C103.612 519.083 103.191 519.17 102.666 519.17ZM102.836 518.041C103.341 518.041 103.767 517.91 104.115 517.647C104.463 517.381 104.727 517.013 104.908 516.544C105.089 516.072 105.18 515.527 105.18 514.909C105.18 514.298 105.091 513.764 104.914 513.306C104.736 512.844 104.473 512.485 104.125 512.23C103.777 511.971 103.348 511.841 102.836 511.841C102.304 511.841 101.86 511.978 101.505 512.251C101.153 512.521 100.888 512.888 100.711 513.354C100.537 513.815 100.45 514.334 100.45 514.909C100.45 515.491 100.539 516.021 100.716 516.496C100.897 516.969 101.164 517.345 101.515 517.626C101.87 517.903 102.311 518.041 102.836 518.041Z" fill="#1A1614"/>
<rect x="141.5" y="506.5" width="28" height="14" stroke="#1FBFFF"/>
<path d="M180.96 508.091L183.773 512.629H183.858L186.67 508.091H188.226L184.795 513.545L188.226 519H186.67L183.858 514.547H183.773L180.96 519H179.405L182.92 513.545L179.405 508.091H180.96ZM192.182 519.192C191.664 519.192 191.193 519.094 190.771 518.899C190.348 518.7 190.013 518.414 189.764 518.041C189.515 517.665 189.391 517.21 189.391 516.678C189.391 516.209 189.483 515.829 189.668 515.538C189.853 515.243 190.1 515.012 190.408 514.845C190.717 514.678 191.058 514.554 191.431 514.472C191.808 514.387 192.186 514.32 192.566 514.27C193.063 514.206 193.466 514.158 193.775 514.126C194.087 514.091 194.315 514.032 194.457 513.95C194.602 513.869 194.675 513.727 194.675 513.524V513.482C194.675 512.956 194.531 512.548 194.244 512.256C193.96 511.965 193.528 511.82 192.949 511.82C192.349 511.82 191.879 511.951 191.538 512.214C191.197 512.477 190.957 512.757 190.819 513.055L189.625 512.629C189.839 512.132 190.123 511.745 190.478 511.468C190.836 511.187 191.227 510.992 191.65 510.882C192.076 510.768 192.495 510.712 192.907 510.712C193.169 510.712 193.471 510.744 193.812 510.808C194.157 510.868 194.489 510.994 194.808 511.186C195.131 511.377 195.4 511.667 195.613 512.054C195.826 512.441 195.932 512.96 195.932 513.609V519H194.675V517.892H194.611C194.526 518.07 194.384 518.26 194.185 518.462C193.986 518.664 193.722 518.837 193.391 518.979C193.061 519.121 192.658 519.192 192.182 519.192ZM192.374 518.062C192.871 518.062 193.29 517.965 193.631 517.77C193.976 517.574 194.235 517.322 194.409 517.013C194.586 516.704 194.675 516.379 194.675 516.038V514.888C194.622 514.952 194.505 515.01 194.324 515.064C194.146 515.113 193.94 515.158 193.706 515.197C193.475 515.232 193.249 515.264 193.029 515.293C192.813 515.317 192.637 515.339 192.502 515.357C192.175 515.399 191.87 515.468 191.586 515.564C191.305 515.657 191.078 515.797 190.904 515.985C190.733 516.17 190.648 516.422 190.648 516.741C190.648 517.178 190.81 517.509 191.133 517.732C191.46 517.952 191.873 518.062 192.374 518.062ZM199.484 514.078V519H198.227V510.818H199.441V512.097H199.548C199.74 511.681 200.031 511.347 200.421 511.095C200.812 510.839 201.316 510.712 201.934 510.712C202.488 510.712 202.973 510.825 203.388 511.053C203.804 511.276 204.127 511.617 204.358 512.075C204.589 512.53 204.704 513.105 204.704 513.801V519H203.447V513.886C203.447 513.244 203.28 512.743 202.946 512.384C202.612 512.022 202.154 511.841 201.572 511.841C201.171 511.841 200.812 511.928 200.496 512.102C200.183 512.276 199.937 512.53 199.756 512.864C199.574 513.197 199.484 513.602 199.484 514.078ZM208.258 514.078V519H207.001V508.091H208.258V512.097H208.365C208.557 511.674 208.844 511.338 209.228 511.09C209.615 510.838 210.13 510.712 210.772 510.712C211.33 510.712 211.818 510.824 212.237 511.047C212.656 511.267 212.981 511.607 213.212 512.065C213.446 512.519 213.564 513.098 213.564 513.801V519H212.307V513.886C212.307 513.237 212.138 512.734 211.801 512.379C211.467 512.02 211.003 511.841 210.41 511.841C209.998 511.841 209.629 511.928 209.302 512.102C208.979 512.276 208.723 512.53 208.535 512.864C208.351 513.197 208.258 513.602 208.258 514.078ZM220.253 508.091H221.829L225.537 517.146H225.665L229.372 508.091H230.949V519H229.713V510.712H229.606L226.197 519H225.004L221.595 510.712H221.488V519H220.253V508.091ZM236.751 519.17C236.012 519.17 235.364 518.995 234.807 518.643C234.253 518.292 233.819 517.8 233.507 517.168C233.198 516.536 233.043 515.797 233.043 514.952C233.043 514.099 233.198 513.355 233.507 512.72C233.819 512.084 234.253 511.591 234.807 511.239C235.364 510.887 236.012 510.712 236.751 510.712C237.489 510.712 238.136 510.887 238.69 511.239C239.247 511.591 239.68 512.084 239.989 512.72C240.302 513.355 240.458 514.099 240.458 514.952C240.458 515.797 240.302 516.536 239.989 517.168C239.68 517.8 239.247 518.292 238.69 518.643C238.136 518.995 237.489 519.17 236.751 519.17ZM236.751 518.041C237.312 518.041 237.774 517.897 238.136 517.61C238.498 517.322 238.766 516.944 238.94 516.475C239.114 516.006 239.201 515.499 239.201 514.952C239.201 514.405 239.114 513.895 238.94 513.423C238.766 512.951 238.498 512.569 238.136 512.278C237.774 511.987 237.312 511.841 236.751 511.841C236.19 511.841 235.728 511.987 235.366 512.278C235.004 512.569 234.736 512.951 234.562 513.423C234.388 513.895 234.301 514.405 234.301 514.952C234.301 515.499 234.388 516.006 234.562 516.475C234.736 516.944 235.004 517.322 235.366 517.61C235.728 517.897 236.19 518.041 236.751 518.041ZM243.634 514.078V519H242.377V510.818H243.592V512.097H243.698C243.89 511.681 244.181 511.347 244.572 511.095C244.962 510.839 245.467 510.712 246.085 510.712C246.638 510.712 247.123 510.825 247.539 511.053C247.954 511.276 248.277 511.617 248.508 512.075C248.739 512.53 248.854 513.105 248.854 513.801V519H247.597V513.886C247.597 513.244 247.43 512.743 247.097 512.384C246.763 512.022 246.305 511.841 245.722 511.841C245.321 511.841 244.962 511.928 244.646 512.102C244.334 512.276 244.087 512.53 243.906 512.864C243.725 513.197 243.634 513.602 243.634 514.078ZM254.475 519.17C253.737 519.17 253.089 518.995 252.531 518.643C251.977 518.292 251.544 517.8 251.231 517.168C250.922 516.536 250.768 515.797 250.768 514.952C250.768 514.099 250.922 513.355 251.231 512.72C251.544 512.084 251.977 511.591 252.531 511.239C253.089 510.887 253.737 510.712 254.475 510.712C255.214 510.712 255.86 510.887 256.414 511.239C256.972 511.591 257.405 512.084 257.714 512.72C258.027 513.355 258.183 514.099 258.183 514.952C258.183 515.797 258.027 516.536 257.714 517.168C257.405 517.8 256.972 518.292 256.414 518.643C255.86 518.995 255.214 519.17 254.475 519.17ZM254.475 518.041C255.036 518.041 255.498 517.897 255.86 517.61C256.223 517.322 256.491 516.944 256.665 516.475C256.839 516.006 256.926 515.499 256.926 514.952C256.926 514.405 256.839 513.895 256.665 513.423C256.491 512.951 256.223 512.569 255.86 512.278C255.498 511.987 255.036 511.841 254.475 511.841C253.914 511.841 253.453 511.987 253.09 512.278C252.728 512.569 252.46 512.951 252.286 513.423C252.112 513.895 252.025 514.405 252.025 514.952C252.025 515.499 252.112 516.006 252.286 516.475C252.46 516.944 252.728 517.322 253.09 517.61C253.453 517.897 253.914 518.041 254.475 518.041Z" fill="#1A1614"/>
<rect x="292.5" y="506.5" width="28" height="14" stroke="#FF8282"/>
<path d="M332.642 508.091V519H331.321V508.091H332.642ZM336.377 514.078V519H335.12V510.818H336.335V512.097H336.441C336.633 511.681 336.924 511.347 337.315 511.095C337.706 510.839 338.21 510.712 338.828 510.712C339.382 510.712 339.866 510.825 340.282 511.053C340.697 511.276 341.021 511.617 341.251 512.075C341.482 512.53 341.598 513.105 341.598 513.801V519H340.34V513.886C340.34 513.244 340.174 512.743 339.84 512.384C339.506 512.022 339.048 511.841 338.465 511.841C338.064 511.841 337.706 511.928 337.389 512.102C337.077 512.276 336.83 512.53 336.649 512.864C336.468 513.197 336.377 513.602 336.377 514.078ZM349.69 512.651L348.561 512.97C348.49 512.782 348.385 512.599 348.247 512.422C348.112 512.24 347.927 512.091 347.693 511.974C347.458 511.857 347.158 511.798 346.792 511.798C346.292 511.798 345.874 511.914 345.541 512.145C345.21 512.372 345.045 512.661 345.045 513.013C345.045 513.325 345.159 513.572 345.386 513.753C345.613 513.934 345.969 514.085 346.452 514.206L347.666 514.504C348.398 514.682 348.943 514.953 349.301 515.319C349.66 515.681 349.839 516.148 349.839 516.72C349.839 517.189 349.704 517.608 349.434 517.977C349.168 518.347 348.795 518.638 348.316 518.851C347.836 519.064 347.279 519.17 346.643 519.17C345.809 519.17 345.118 518.989 344.571 518.627C344.024 518.265 343.678 517.736 343.532 517.04L344.726 516.741C344.839 517.182 345.054 517.512 345.37 517.732C345.69 517.952 346.107 518.062 346.622 518.062C347.208 518.062 347.673 517.938 348.018 517.69C348.366 517.437 348.54 517.136 348.54 516.784C348.54 516.5 348.44 516.262 348.241 516.07C348.042 515.875 347.737 515.729 347.325 515.634L345.961 515.314C345.212 515.136 344.662 514.861 344.31 514.488C343.962 514.112 343.788 513.641 343.788 513.077C343.788 512.615 343.918 512.207 344.177 511.852C344.44 511.496 344.797 511.218 345.248 511.015C345.702 510.813 346.217 510.712 346.792 510.712C347.602 510.712 348.238 510.889 348.699 511.244C349.165 511.599 349.495 512.068 349.69 512.651ZM355.29 510.818V511.884H351.05V510.818H355.29ZM352.286 508.858H353.543V516.656C353.543 517.011 353.594 517.278 353.697 517.455C353.804 517.629 353.939 517.746 354.102 517.807C354.269 517.864 354.445 517.892 354.629 517.892C354.768 517.892 354.881 517.885 354.97 517.871C355.059 517.853 355.13 517.839 355.183 517.828L355.439 518.957C355.354 518.989 355.235 519.021 355.082 519.053C354.929 519.089 354.736 519.107 354.502 519.107C354.146 519.107 353.798 519.03 353.457 518.877C353.12 518.725 352.84 518.492 352.616 518.18C352.396 517.867 352.286 517.473 352.286 516.997V508.858ZM357.181 519V510.818H358.395V512.054H358.481C358.63 511.649 358.9 511.321 359.29 511.069C359.681 510.816 360.121 510.69 360.611 510.69C360.704 510.69 360.819 510.692 360.957 510.696C361.096 510.699 361.201 510.705 361.272 510.712V511.99C361.229 511.979 361.131 511.963 360.979 511.942C360.83 511.917 360.672 511.905 360.505 511.905C360.107 511.905 359.752 511.988 359.439 512.155C359.13 512.319 358.885 512.546 358.704 512.837C358.527 513.125 358.438 513.453 358.438 513.822V519H357.181ZM367.918 515.655V510.818H369.175V519H367.918V517.615H367.833C367.641 518.031 367.343 518.384 366.938 518.675C366.533 518.963 366.022 519.107 365.404 519.107C364.893 519.107 364.438 518.995 364.04 518.771C363.643 518.544 363.33 518.203 363.103 517.748C362.876 517.29 362.762 516.713 362.762 516.017V510.818H364.019V515.932C364.019 516.528 364.186 517.004 364.52 517.359C364.857 517.714 365.287 517.892 365.809 517.892C366.121 517.892 366.439 517.812 366.762 517.652C367.089 517.493 367.362 517.248 367.583 516.917C367.806 516.587 367.918 516.166 367.918 515.655ZM371.478 519V510.818H372.692V512.097H372.799C372.969 511.66 373.244 511.321 373.624 511.079C374.004 510.834 374.461 510.712 374.993 510.712C375.533 510.712 375.982 510.834 376.341 511.079C376.703 511.321 376.986 511.66 377.188 512.097H377.273C377.483 511.674 377.797 511.338 378.216 511.09C378.635 510.838 379.138 510.712 379.723 510.712C380.455 510.712 381.053 510.941 381.519 511.399C381.984 511.853 382.216 512.562 382.216 513.524V519H380.959V513.524C380.959 512.92 380.794 512.489 380.464 512.23C380.134 511.971 379.745 511.841 379.297 511.841C378.722 511.841 378.276 512.015 377.96 512.363C377.644 512.707 377.486 513.144 377.486 513.673V519H376.208V513.396C376.208 512.931 376.057 512.556 375.755 512.272C375.453 511.985 375.064 511.841 374.589 511.841C374.262 511.841 373.956 511.928 373.672 512.102C373.392 512.276 373.165 512.517 372.991 512.826C372.82 513.132 372.735 513.485 372.735 513.886V519H371.478ZM387.945 519.17C387.157 519.17 386.477 518.996 385.905 518.648C385.337 518.297 384.898 517.807 384.589 517.178C384.284 516.546 384.131 515.811 384.131 514.973C384.131 514.135 384.284 513.396 384.589 512.757C384.898 512.114 385.328 511.614 385.878 511.255C386.432 510.893 387.079 510.712 387.817 510.712C388.244 510.712 388.664 510.783 389.08 510.925C389.495 511.067 389.873 511.298 390.214 511.617C390.555 511.933 390.827 512.352 391.029 512.874C391.232 513.396 391.333 514.039 391.333 514.803V515.335H385.026V514.249H390.055C390.055 513.787 389.962 513.375 389.778 513.013C389.597 512.651 389.337 512.365 389 512.155C388.666 511.946 388.272 511.841 387.817 511.841C387.317 511.841 386.883 511.965 386.518 512.214C386.155 512.459 385.877 512.778 385.681 513.173C385.486 513.567 385.388 513.989 385.388 514.44V515.165C385.388 515.783 385.495 516.306 385.708 516.736C385.925 517.162 386.225 517.487 386.608 517.711C386.992 517.931 387.437 518.041 387.945 518.041C388.275 518.041 388.574 517.995 388.84 517.903C389.11 517.807 389.343 517.665 389.538 517.477C389.733 517.285 389.884 517.047 389.991 516.763L391.205 517.104C391.077 517.516 390.862 517.878 390.561 518.19C390.259 518.499 389.886 518.741 389.442 518.915C388.998 519.085 388.499 519.17 387.945 519.17ZM394.502 514.078V519H393.245V510.818H394.46V512.097H394.566C394.758 511.681 395.049 511.347 395.44 511.095C395.831 510.839 396.335 510.712 396.953 510.712C397.507 510.712 397.991 510.825 398.407 511.053C398.822 511.276 399.146 511.617 399.376 512.075C399.607 512.53 399.723 513.105 399.723 513.801V519H398.465V513.886C398.465 513.244 398.299 512.743 397.965 512.384C397.631 512.022 397.173 511.841 396.59 511.841C396.189 511.841 395.831 511.928 395.514 512.102C395.202 512.276 394.955 512.53 394.774 512.864C394.593 513.197 394.502 513.602 394.502 514.078ZM405.578 510.818V511.884H401.338V510.818H405.578ZM402.574 508.858H403.831V516.656C403.831 517.011 403.882 517.278 403.985 517.455C404.092 517.629 404.227 517.746 404.39 517.807C404.557 517.864 404.733 517.892 404.917 517.892C405.056 517.892 405.17 517.885 405.258 517.871C405.347 517.853 405.418 517.839 405.471 517.828L405.727 518.957C405.642 518.989 405.523 519.021 405.37 519.053C405.218 519.089 405.024 519.107 404.79 519.107C404.434 519.107 404.086 519.03 403.746 518.877C403.408 518.725 403.128 518.492 402.904 518.18C402.684 517.867 402.574 517.473 402.574 516.997V508.858Z" fill="#1A1614"/>
</svg>
