<svg width="1010" height="533" viewBox="0 0 1010 533" fill="none" xmlns="http://www.w3.org/2000/svg">
  <g style="mix-blend-mode:multiply">
    <path
      d="M915.788 2.4209C929.09 2.42094 939.791 5.65089 947.838 12.1621C956.281 18.3087 960.5 26.9635 960.5 38.0635C960.5 46.472 958.204 53.3972 953.577 58.7949L953.576 58.7939C949.325 63.8165 943.897 66.3378 937.327 66.3379C929.312 66.3379 923.8 64.0454 921.024 59.2881L921.016 59.2734L921.009 59.2598C918.712 54.6655 917.186 49.3179 916.425 43.2266L916.424 43.2119L916.423 43.1963C916.048 37.1932 914.922 31.9593 913.059 27.4863C911.277 23.211 907.176 20.9922 900.483 20.9922C891.987 20.9923 884.373 25.2298 877.639 33.834L877.64 33.835C871.289 42.0531 865.45 57.826 860.16 81.252V81.2539L848.823 130.567C848.271 132.959 848.537 134.606 849.427 135.658C850.324 136.719 851.981 137.323 854.571 137.323H899.917C903.537 137.323 906.207 137.985 907.769 139.442C909.378 140.944 909.683 143.157 908.9 145.896C908.313 148.61 907.133 150.699 905.325 152.105C903.513 153.515 901.127 154.194 898.217 154.194H848.903C847.1 154.194 845.655 154.644 844.532 155.508C843.409 156.372 842.561 157.687 842.016 159.5L781.372 420.779L781.37 420.788L781.367 420.798C780.78 422.95 779.787 424.613 778.359 425.735C776.93 426.859 775.112 427.401 772.949 427.401H749.144C746.624 427.401 744.729 426.772 743.646 425.363C742.565 423.959 742.409 421.932 742.988 419.42V419.418L800.237 174.553L800.238 174.549C801.928 167.601 801.607 162.53 799.454 159.21C797.319 155.918 793.275 154.194 787.12 154.194H775.217C772.132 154.194 769.725 153.521 768.086 152.087C766.434 150.642 765.647 148.5 765.647 145.759C765.648 142.998 766.542 140.852 768.392 139.413C770.218 137.993 772.899 137.323 776.351 137.323C788.04 137.323 796.63 135.812 802.188 132.848L802.2 132.842L802.744 132.559C808.306 129.54 812.026 123.747 813.838 115.049L813.84 115.04L814.308 113.023C819.213 92.2668 826.253 73.8092 835.432 57.6553L835.434 57.6523C845.288 40.5971 857.047 27.1255 870.717 17.2529C884.403 7.36881 899.431 2.4209 915.788 2.4209Z"
      fill="#F4FFAC" stroke="black" />
    <path
      d="M701.416 18.293C705.842 18.293 709.333 19.4006 711.815 21.6846C714.143 23.8255 715.521 26.9417 716.001 30.9688L716.085 31.7861L716.086 31.7959V31.8057L720.618 125.863L720.681 126.468C720.947 129.448 720.502 131.806 719.243 133.452C717.886 135.226 715.676 136.058 712.753 136.058C710.393 136.058 708.464 135.416 707.027 134.082C705.596 132.753 704.712 130.791 704.323 128.265L704.322 128.264L701.488 109.559V109.558C698.471 89.9499 693.199 74.7283 685.7 63.8555C678.179 52.9497 669.739 45.2712 660.389 40.7832L660.375 40.7754C650.984 35.8919 641.993 33.464 633.398 33.4639C616.784 33.4639 605.615 36.1152 599.718 41.2754C593.816 46.4397 590.819 54.4034 590.819 65.2725V199.041C590.819 201.609 591.461 203.444 592.657 204.64C593.853 205.835 595.687 206.477 598.255 206.477H618.094C626.315 206.477 632.897 204.283 637.888 199.939C642.883 195.591 646.338 189.042 648.213 180.232L648.214 180.229L654.449 151.888L654.45 151.883C655.033 149.359 656.065 147.409 657.585 146.091C659.111 144.768 661.078 144.127 663.439 144.127C665.84 144.127 667.707 144.987 668.949 146.747C670.169 148.476 670.741 151.007 670.741 154.263V281.797C670.741 285.052 670.169 287.583 668.949 289.312C667.707 291.072 665.84 291.933 663.439 291.933C661.078 291.933 659.111 291.29 657.585 289.968C656.065 288.65 655.033 286.701 654.45 284.177L654.449 284.174L648.214 256.399L648.212 256.388C645.569 243.173 641.815 234.635 637.043 230.598L637.035 230.592L637.028 230.585C632.618 226.542 626.145 224.481 617.527 224.481H598.255C595.687 224.482 593.853 225.123 592.657 226.318C591.461 227.514 590.819 229.349 590.819 231.917V386.658C590.819 394.551 591.95 400.082 594.119 403.357C596.645 406.223 601.767 408.275 609.662 409.402L609.665 409.403L636.306 413.371L636.321 413.373C638.458 413.761 640.125 414.501 641.262 415.638C642.409 416.785 642.967 418.29 642.967 420.101C642.967 422.478 642.219 424.34 640.654 425.592C639.111 426.826 636.852 427.402 633.965 427.402H518.9C516.02 427.402 513.769 426.876 512.229 425.746C510.659 424.595 509.898 422.872 509.898 420.667C509.898 418.83 510.569 417.279 511.901 416.049C513.218 414.834 515.153 413.955 517.654 413.378L517.668 413.375L517.682 413.373L530.71 411.106C534.659 410.354 537.883 409.465 540.393 408.442C542.908 407.418 544.668 406.274 545.729 405.037L545.741 405.023L545.755 405.01C546.991 403.774 547.95 401.885 548.599 399.29C549.247 396.698 549.576 393.436 549.576 389.492V56.2031C549.576 52.2597 549.247 48.9972 548.599 46.4053C547.95 43.8104 546.99 41.9212 545.755 40.6855L545.741 40.6719L545.729 40.6572C544.668 39.4203 542.908 38.2777 540.393 37.2529C537.885 36.2312 534.663 35.3407 530.718 34.5889L517.682 32.3223L517.668 32.3203L517.654 32.3174C515.153 31.7402 513.218 30.8616 511.901 29.6465C510.569 28.4164 509.899 26.8654 509.898 25.0283C509.898 22.8237 510.659 21.0995 512.229 19.9482C513.769 18.8183 516.02 18.293 518.9 18.293H701.416Z"
      fill="#F4FFAC" stroke="black" />
    <path
      d="M405.542 133.924C412.792 133.924 419.664 135.449 426.153 138.502C432.462 141.103 437.688 145.322 441.832 151.144L442.23 151.712L442.234 151.718C444.482 155.088 446.618 156.597 448.62 156.597C450.622 156.597 452.759 155.088 455.006 151.718L455.01 151.712L455.78 150.604C459.582 145.21 462.774 141.722 465.353 140.238C468.04 138.322 470.591 137.325 472.993 137.325C475.525 137.325 477.422 138.007 478.501 139.518C479.568 141.011 479.728 143.17 479.15 145.865L479.148 145.873L428.701 362.963L428.702 362.964C425.872 375.227 425.427 384.329 427.275 390.337C428.195 393.327 429.676 395.528 431.695 396.986C433.716 398.445 436.322 399.194 439.551 399.194C447.978 399.194 455.593 393.524 462.358 381.872L462.364 381.862C469.509 370.205 476.674 352.118 483.85 327.568C484.434 325.429 485.374 323.773 486.699 322.651C488.033 321.523 489.712 320.974 491.698 320.974C493.091 320.974 494.281 321.273 495.234 321.908C496.192 322.547 496.867 323.496 497.273 324.717C498.065 327.092 498.055 329.83 497.289 332.908L497.29 332.909C490.106 368.452 480.451 394.052 468.286 409.639L468.282 409.643C456.11 424.858 441.426 432.503 424.247 432.503C416.807 432.503 410.386 430.929 405.005 427.758C399.622 424.586 395.309 419.834 392.061 413.527L392.055 413.517C385.937 400.899 385.394 383.762 390.317 362.174L390.318 362.17L397.687 330.995L397.689 330.983L397.692 330.973C398.059 329.688 398.074 328.775 397.847 328.168C397.637 327.608 397.188 327.228 396.375 327.065L396.363 327.063L396.352 327.061C395.745 326.909 395.186 327.016 394.638 327.407C394.07 327.813 393.501 328.535 392.952 329.633L392.944 329.648C372.155 367.825 353.608 394.524 337.298 409.696C321.383 424.852 306.151 432.503 291.611 432.503C277.833 432.503 267.096 426.556 259.449 414.703C251.816 402.872 248.033 385.566 248.033 362.852C248.033 341.265 251.063 319.681 257.121 298.1C263.177 276.148 271.504 255.33 282.103 235.647C292.699 215.968 304.623 198.554 317.876 183.408L317.88 183.402C331.511 168.256 345.72 156.318 360.509 147.597C375.685 138.491 390.699 133.924 405.542 133.924ZM403.842 149.095C394.176 149.095 383.893 153.556 372.985 162.583L372.978 162.59C362.069 171.241 351.521 183.103 341.339 198.188C331.534 213.272 322.48 230.436 314.178 249.681C306.253 268.548 299.838 288.362 294.932 309.119V309.121C290.028 329.491 287.577 349.479 287.577 369.087C287.577 375.683 287.954 381.227 288.704 385.726C289.452 390.216 290.567 393.632 292.023 396.01C295.322 400.398 299.888 402.596 305.782 402.596C314.651 402.596 324.543 397.231 335.47 386.305C346.393 375.382 357.139 361.245 367.705 343.887L367.709 343.88L368.732 342.248C379.279 325.349 388.941 307.208 397.718 287.825C406.778 267.817 413.949 248.568 419.231 230.079L419.234 230.069C424.895 211.579 427.715 195.95 427.715 183.17C427.715 171.688 425.689 163.166 421.713 157.526C417.76 151.918 411.832 149.095 403.842 149.095Z"
      fill="#F4FFAC" stroke="black" />
    <path
      d="M141.346 12.624C143.333 12.6241 145.13 13.2201 146.722 14.4062C148.787 15.6554 150.143 18.2859 150.905 22.0947L240.457 381.435C243.099 392.002 246.101 399.278 249.428 403.345C252.733 407.385 257.904 410.177 265.01 411.674L273.512 413.374L273.519 413.376C276.211 413.953 278.292 414.878 279.706 416.19C281.136 417.518 281.85 419.212 281.85 421.233C281.85 423.268 281.074 424.852 279.501 425.9C277.964 426.925 275.721 427.401 272.848 427.401H175.921C173.224 427.401 171.11 426.873 169.661 425.735C168.19 424.579 167.486 422.858 167.486 420.666C167.486 418.436 168.359 416.673 170.106 415.439C171.82 414.23 174.333 413.559 177.578 413.366L188.339 412.233C194.715 411.482 198.439 409.439 199.838 406.293L199.847 406.272L199.857 406.253C200.745 404.655 201.212 402.436 201.212 399.553C201.212 396.676 200.747 393.175 199.809 389.044L178.27 301.187L178.269 301.18C177.153 296.348 175.075 292.776 172.069 290.407C169.063 288.038 165.072 286.83 160.051 286.83H100.534C95.7069 286.83 91.8088 288.036 88.7988 290.407C85.7888 292.779 83.6162 296.356 82.3135 301.189L82.3145 301.19L63.042 377.145L63.041 377.148C60.218 387.876 60.2506 396.095 63.0088 401.888C65.7485 407.641 71.2368 411.116 79.6279 412.235L88.1309 413.369L88.1406 413.37L88.1514 413.372C91.394 413.944 93.8869 414.812 95.5801 416.007C97.2947 417.217 98.2001 418.776 98.2002 420.666C98.2002 422.858 97.4968 424.579 96.0254 425.735C94.5769 426.873 92.4617 427.401 89.7646 427.401H10.4102C7.53667 427.401 5.29414 426.925 3.75684 425.9C2.18376 424.852 1.40828 423.268 1.4082 421.233C1.4082 419.212 2.12206 417.518 3.55176 416.19C4.96538 414.878 7.04682 413.953 9.73926 413.376L9.74512 413.374L18.248 411.674C25.6941 410.185 31.2393 406.66 34.9346 401.117C38.6717 395.133 41.8644 386.879 44.501 376.333L132.357 22.0723C133.116 18.2913 134.276 15.6758 135.944 14.4248L135.965 14.4092L135.987 14.3955C137.921 13.2355 139.711 12.624 141.346 12.624ZM91.9561 259.787C91.4016 262.938 91.7526 265.172 92.8545 266.613C93.9483 268.044 95.887 268.826 98.834 268.826H161.185C164.131 268.826 166.07 268.044 167.164 266.613C168.265 265.173 168.616 262.94 168.062 259.791L131.882 108.282H129.833L91.9561 259.787Z"
      fill="#F4FFAC" stroke="black" />
  </g>
</svg>